<svg xmlns="http://www.w3.org/2000/svg" xmlns:xlink="http://www.w3.org/1999/xlink" viewBox="0 0 172.28 159.66"><defs><style>.cls-1{fill:url(#名称未設定グラデーション_30);}.cls-2{fill:#36c;}</style><linearGradient id="名称未設定グラデーション_30" x1="23.59" y1="149.86" x2="148.68" y2="24.77" gradientUnits="userSpaceOnUse"><stop offset="0" stop-color="#36c"/><stop offset="0.2" stop-color="#9694ff"/><stop offset="0.68" stop-color="#36c"/></linearGradient></defs><title>award</title><g id="レイヤー_2" data-name="レイヤー 2"><g id="デザイン_PC_" data-name="デザイン（PC）"><path class="cls-1" d="M74.86,155.7q2.73,2.07,5.79,4C30,150.55,1,98.54,16.92,51.8q2.32-2.76,4.86-5.28C2.29,91.31,27.55,143.35,74.86,155.7ZM7.86,40.51c-5.51,20.59,6,21,5.46,21.12C13.06,61.46,17.16,48.81,7.86,40.51ZM1.76,60C.88,80.5,12.16,78.73,11.65,78.9,11.37,78.77,12.68,65.94,1.76,60ZM0,79.68C3.37,99.47,14,95.59,13.54,95.82,13.25,95.73,11.93,83.12,0,79.68ZM2.3,98.93c7.25,18.5,16.84,12.66,16.46,12.95C18.45,111.84,14.67,99.82,2.3,98.93Zm6.07,18.25c10.75,16.65,19,9,18.68,9.38C26.74,126.58,20.65,115.55,8.37,117.18Zm10.25-58c.42,0,8.58.28,15.15-13.81C20.3,45.07,18.22,59.44,18.62,59.13ZM16.15,74.07c.34.16,8.65.63,13.75-12.84C17,60.45,15.81,74.23,16.15,74.07ZM17,90.25c.35.11,8.63-1.2,10.79-15.06C15.06,77,16.69,90.45,17,90.25Zm4,15.5c.35,0,8.23-3,7.55-16.78C16.51,93.27,20.78,106,21,105.75Zm7,14.35c.36,0,7.47-4.58,4.07-17.94C21.16,108.78,27.85,120.37,28,120.1Zm9.77,12.7c.37-.07,6.37-6,.38-18.44C28.77,123,37.67,133.1,37.81,132.8ZM50.1,143.37c.36-.14,5-7.17-3.5-18.24C39.1,135.54,50,143.7,50.1,143.37Zm-34-9.63c15.69,16.31,23.11,5.79,22.77,6.3C38.51,140.14,29.3,129.43,16.13,133.74ZM27.84,154.1c24.25,11.78,26-4.07,26-3.2C53.5,151.37,38.49,142.51,27.84,154.1Zm69.58,1.6q-2.73,2.07-5.79,4c50.68-9.11,79.68-61.12,63.72-107.86Q153,49,150.5,46.52C170,91.31,144.73,143.35,97.42,155.7ZM159,61.63c-.57-.09,11-.53,5.46-21.12C155.12,48.81,159.22,61.46,159,61.63Zm1.68,17.27c-.51-.17,10.76,1.6,9.88-18.89C159.6,65.94,160.91,78.77,160.63,78.9Zm-1.9,16.92c-.44-.23,10.17,3.65,13.55-16.14C160.34,83.12,159,95.73,158.73,95.82Zm-5.21,16.06c-.38-.29,9.21,5.55,16.46-12.95C157.6,99.82,153.82,111.84,153.52,111.88Zm-8.29,14.68c-.32-.34,7.92,7.27,18.68-9.38C151.62,115.55,145.54,126.58,145.23,126.56ZM138.5,45.32c6.57,14.09,14.74,13.82,15.16,13.81C154.06,59.44,152,45.07,138.5,45.32Zm3.87,15.91c5.11,13.47,13.41,13,13.75,12.84C156.47,74.23,155.23,60.45,142.37,61.23Zm2.14,14C146.67,89.05,155,90.36,155.3,90.25,155.59,90.45,157.22,77,144.51,75.19ZM143.7,89c-.67,13.83,7.2,16.83,7.56,16.78C151.5,106,155.77,93.27,143.7,89Zm-3.54,13.19c-3.39,13.36,3.71,17.93,4.07,17.94C144.42,120.37,151.12,108.78,140.16,102.16Zm-6.07,12.2c-6,12.44,0,18.37.37,18.44C134.61,133.1,143.51,123,134.09,114.36Zm-8.42,10.77c-8.46,11.07-3.86,18.1-3.49,18.24C122.27,143.7,133.17,135.54,125.67,125.13ZM133.38,140c-.34-.51,7.07,10,22.76-6.3C143,129.43,133.77,140.14,133.38,140ZM118.47,150.9c0-.87,1.71,15,26,3.2C133.79,142.51,118.77,151.37,118.47,150.9ZM55.21,103.46V74.62h.13l10.52,28.84h6.47v-48H65.45V84.39h-.13L54.94,55.48h-6.6v48ZM77.51,92a25.37,25.37,0,0,0,.27,3.85,9.5,9.5,0,0,0,1,3.1,9.36,9.36,0,0,0,3.47,3.57,11.94,11.94,0,0,0,11,0A9.36,9.36,0,0,0,96.72,99a9.5,9.5,0,0,0,1-3.1A25.37,25.37,0,0,0,98,92V80.75a25.33,25.33,0,0,0-.27-3.84,9.12,9.12,0,0,0-4.48-6.67,11.86,11.86,0,0,0-11,0,9.12,9.12,0,0,0-4.48,6.67,25.33,25.33,0,0,0-.27,3.84Zm6.88-12.33a4.15,4.15,0,0,1,.91-2.93,3.58,3.58,0,0,1,4.92,0,4.2,4.2,0,0,1,.91,2.93V93.08A4.18,4.18,0,0,1,90.22,96a3.58,3.58,0,0,1-4.92,0,4.13,4.13,0,0,1-.91-2.93Zm22.84,23.79V96.59h-6.87v6.87Zm14.76,0v-48h-6.87l-6.88,5.05v7.28l6.88-5.05v40.7ZM48.05,44a17.22,17.22,0,0,1-.57,4.48l1.69,1.05a23.4,23.4,0,0,0,.57-5.28Zm-.15-.52c.2,0,2.09-.23,2.3-.25v7.26h2V43l.77-.09c0,.13.12.62.14.71L55,43l-.08-.32,2.35-.13-.81,1.23a12.07,12.07,0,0,1,3.34,1.82l1.32-1.93a12.8,12.8,0,0,0-2.28-1.21,25,25,0,0,0,2.94-.25c.21.38.35.65.55,1.05l2.19-1.4a16.73,16.73,0,0,0-3.3-4.27l-1.79,1a13.72,13.72,0,0,1,1.08,1.53c-.64,0-2.2,0-2.58.06a28.4,28.4,0,0,0,1.94-3.28l-2.35-.41a9.19,9.19,0,0,0,1.3-2.18l-2.36-.73a7.8,7.8,0,0,1-2.16,2.74l-1.79-1c-.36.64-.72,1.32-1.59,2.62-.12-.16-.25-.29-.53-.62a30.82,30.82,0,0,0,1.87-3.33L50,33.57A20.2,20.2,0,0,1,49,36a5.36,5.36,0,0,0-.45-.37l-1.07,2.27a10.78,10.78,0,0,1,2,2l-.87,1.16h-1Zm4.22-3.7c.16.43.28.75.41,1.16L51,41c1.08-1.32,1.67-2.14,2.65-3.54L55,39a13.2,13.2,0,0,0,2-1.94,27.53,27.53,0,0,1-1.53,3.16h-.95l.07,1.63a13,13,0,0,0-1-2.56Zm3.11,10.34a12.23,12.23,0,0,0,1.14-4.83l-1.88-.44c-.08-.41-.11-.6-.18-.89l-1.64.32a28.58,28.58,0,0,1,.2,3.43l.85-.17a7.73,7.73,0,0,1-.6,1.31Zm9.58-1.34a19.07,19.07,0,0,0-1.57-4.57l-2.08.87a9.33,9.33,0,0,1,.69,1.83L60,46.47a6.5,6.5,0,0,1-.16,1.33c-.06.16-.2.18-.36.18H59c-.32,0-.32-.3-.32-.48V45.15H56.5v4.06c0,.87.67,1.14,1.46,1.14h2.5c1.09,0,1.21-.86,1.52-3,.28,1.28.37,1.76.51,2.49Zm.12-12.15a10,10,0,0,1-3-3.11l-2.26.82a11.5,11.5,0,0,0,3.82,4.53Zm6.31,4.25h9.14V39.44a24.86,24.86,0,0,0,2.74,1.42l1.39-2.74a17.1,17.1,0,0,1-7.24-4.55H74.35a15.31,15.31,0,0,1-7.24,4.55l1.3,2.74a20.66,20.66,0,0,0,2.83-1.45Zm-2.37,9.59h2.78v-.58H79.9v.58h2.8V42.06H68.87Zm11-6v3H71.65v-3Zm-7.19-6.07a13.69,13.69,0,0,0,3.05-2.75,19,19,0,0,0,3.09,2.75Zm18.64,5.18c0,3.19-1.62,3.81-4.57,4.33l1.1,2.65c3.62-.61,6.16-1.89,6.34-7Zm-4.43-6.56h7v.85H87.81v2.21h15.13V37.91H96.8v-.85h7V34.62h-7v-1H93.88v1h-7Zm.32,7.65H90V43.07h10.73v1.69h2.77v-4H87.24Zm13.9,1c-.13,1.9-.2,2-.8,2H99.13c-.3,0-.41-.05-.41-.46V43.62H95.94v5a1.56,1.56,0,0,0,1.71,1.74h4.2a1.71,1.71,0,0,0,1.57-1.1,13.36,13.36,0,0,0,.46-3Zm11.91-12.1V47.11h-6.58v2.78h16.86V47.11h-7.41V41h6.51V38.2h-6.51V33.59ZM68,139.68h2.08l-3.41-8.75H64.26l-3.42,8.75h2.09l.69-1.9H67.3Zm-2.53-7,1.27,3.52H64.18Zm12.39,7H80.3l1.75-8.75h-1.9l-1.1,6.95L78,130.93H75.51l-1.1,6.95-1.1-6.95h-1.9l1.76,8.75h2.45l1.11-6.84Zm12.71,0h2.08l-3.41-8.75H86.83l-3.42,8.75h2.08l.69-1.9h3.68Zm-2.53-7,1.26,3.52H86.75Zm6.47-1.75v8.75h1.83v-3.29h2.83c.57,0,1.19,0,1.19,1.1v.85a6.1,6.1,0,0,0,.14,1.34h1.88a5.66,5.66,0,0,1-.21-1.67v-.8a1.46,1.46,0,0,0-1.14-1.65,2,2,0,0,0,1.28-2.21c0-2.42-1.76-2.42-2.54-2.42Zm4.93,1.66c.61,0,1.06.18,1.06,1,0,1-.39,1.18-1.08,1.18H96.32v-2.18Zm5-1.66v8.75h5.15c2.51,0,3.26-1.11,3.26-4.42s-.86-4.33-3.34-4.33Zm4.91,1.66c1.35,0,1.67.47,1.67,2.58,0,2.37-.18,2.84-1.66,2.84h-3.1v-5.42Zm-41.75-5.7h7.87v-2H70.16l4.44-5.75a4.24,4.24,0,0,0-.31-5.41,3.89,3.89,0,0,0-2.89-1.17,3.62,3.62,0,0,0-2.68,1.15,4.4,4.4,0,0,0-1.16,2.94h2a2.38,2.38,0,0,1,.66-1.52,1.87,1.87,0,0,1,1.36-.54,1.81,1.81,0,0,1,1.43.62,2.16,2.16,0,0,1,.48,1.4,3,3,0,0,1-.08.64A2.44,2.44,0,0,1,73,118l-5.4,7Zm11.72-4a3.94,3.94,0,0,0,6.65,3,4,4,0,0,0,1.18-3v-6.29a4,4,0,0,0-1.18-3,4,4,0,0,0-5.43,0,3.89,3.89,0,0,0-1.22,3Zm5.86-.12c0,1.45-.69,2.17-2,2.19s-1.91-.74-1.94-2.19v-6.05c0-1.43.67-2.15,1.94-2.18s1.91.75,2,2.18Zm8.77,4.1h2V112.65h-2l-2,1.46v2.18l2-1.49Zm8.83-10.15h2v-2.06h3.65l-4.65,12.21h2.2l4.67-12.21v-2h-7.85Z"/><path class="cls-2" d="M102.82,14.63A5.74,5.74,0,0,0,98.45,9.1a6.43,6.43,0,0,0-9.82-2.75,8.16,8.16,0,0,1-.95-1.62,2.49,2.49,0,1,0-2.18,0,8.16,8.16,0,0,1-1,1.62A6.42,6.42,0,0,0,74.74,9.1a5.72,5.72,0,0,0-4.37,5.53,4.42,4.42,0,0,0,.46,2.31,6.7,6.7,0,0,0,.57,1,9.83,9.83,0,0,0,1.25,1.48,2.18,2.18,0,0,0-.34,1.15,2.13,2.13,0,0,0,1.56,2.05v1.85a2.12,2.12,0,0,0,.56,4.16H98.75a2.12,2.12,0,0,0,.56-4.16V22.63a2.13,2.13,0,0,0,1.56-2.05,2.1,2.1,0,0,0-.34-1.15A9.13,9.13,0,0,0,101.77,18a5.4,5.4,0,0,0,.57-1A4.58,4.58,0,0,0,102.82,14.63Zm-15-5.69a4.91,4.91,0,0,1,.58-.85,5,5,0,0,1,1-.88,5.26,5.26,0,0,1,3.11-1,5.33,5.33,0,0,1,4.67,2.75,5,5,0,0,1,.27.57,5.62,5.62,0,0,1,.19.58,5.15,5.15,0,0,1,.2,1.43v.08a4,4,0,0,1-.45,2,5.1,5.1,0,0,1-.54,1,11.88,11.88,0,0,1-3.16,3.06l0,0c-.23.2-.5.47-.8.78H87.19l0-6.94a5.41,5.41,0,0,1,.16-1.28A4.89,4.89,0,0,1,87.82,8.94Zm-1.23,0a6.33,6.33,0,0,0-1.08-1.66h0a9.33,9.33,0,0,0,1.08-1.77,9.33,9.33,0,0,0,1.08,1.77A6.33,6.33,0,0,0,86.59,8.9ZM85.4,2.49a1.19,1.19,0,1,1,1.9.95,1.17,1.17,0,0,1-1.42,0A1.19,1.19,0,0,1,85.4,2.49Zm-10,9.12v-.09a5.15,5.15,0,0,1,.2-1.43,4,4,0,0,1,.2-.58,3.72,3.72,0,0,1,.27-.57,5.32,5.32,0,0,1,4.66-2.75,5.24,5.24,0,0,1,3.11,1,5,5,0,0,1,1,.88h0a5.6,5.6,0,0,1,.59.85,5.23,5.23,0,0,1,.5,1.3A5.32,5.32,0,0,1,86,11.51l0,7H80.37c-.3-.31-.57-.58-.8-.78l0,0a12,12,0,0,1-3.17-3.07,5.64,5.64,0,0,1-.54-1A4,4,0,0,1,75.37,11.61Zm-3.05,5.7a5.21,5.21,0,0,1-.47-.83,3.47,3.47,0,0,1-.38-1.72v-.09a4.64,4.64,0,0,1,2.89-4.28,5.67,5.67,0,0,0-.1,1.09,4.89,4.89,0,0,0,.52,2.59,6.31,6.31,0,0,0,.64,1.13,12.89,12.89,0,0,0,3.32,3.26H74.43a2.11,2.11,0,0,0-.94.23A8.58,8.58,0,0,1,72.32,17.31Zm27.44,9.21a1,1,0,0,1-1,1H74.43a1,1,0,1,1,0-2H98.75A1,1,0,0,1,99.76,26.52ZM75,24.4V22.7H98.2v1.7H75Zm23.76-2.81H74.43a1,1,0,0,1-1-1,1,1,0,0,1,.08-.38,1,1,0,0,1,.93-.62H98.75a1,1,0,0,1,1,1A1,1,0,0,1,98.75,21.59Zm2.57-5.1a4.08,4.08,0,0,1-.47.83,8.36,8.36,0,0,1-1.15,1.37,2.18,2.18,0,0,0-1-.23H94.43a12.82,12.82,0,0,0,3.31-3.25,5.82,5.82,0,0,0,.64-1.13,5,5,0,0,0,.54-2.6,7.89,7.89,0,0,0-.1-1.09,4.63,4.63,0,0,1,2.88,4.28v.08A3.48,3.48,0,0,1,101.32,16.49Z"/></g></g></svg>