<svg xmlns="http://www.w3.org/2000/svg" xmlns:xlink="http://www.w3.org/1999/xlink" viewBox="0 0 69 105.69"><defs><style>.cls-1,.cls-2,.cls-6{fill:none;}.cls-2{stroke:#36c;stroke-width:0.3px;}.cls-3{fill:#36c;}.cls-4{fill:url(#名称未設定グラデーション_48);}.cls-5{fill:url(#グリッド_1_パイカ_線_2);}.cls-6{stroke:#588ddb;stroke-miterlimit:10;}.cls-7{fill:#5983c6;}.cls-8{fill:#fff;}</style><linearGradient id="名称未設定グラデーション_48" x1="34.5" y1="82.86" x2="34.5" y2="15.23" gradientUnits="userSpaceOnUse"><stop offset="0" stop-color="#3361ad"/><stop offset="1" stop-color="#36c"/></linearGradient><pattern id="グリッド_1_パイカ_線_2" data-name="グリッド 1 パイカ (線) 2" width="72" height="72" patternTransform="translate(-16.85 -213.02) rotate(-45) scale(0.6)" patternUnits="userSpaceOnUse" viewBox="0 0 72 72"><rect class="cls-1" width="72" height="72"/><line class="cls-2" x1="6" y1="71.75" x2="6" y2="144.25"/><line class="cls-2" x1="30" y1="71.75" x2="30" y2="144.25"/><line class="cls-2" x1="54" y1="71.75" x2="54" y2="144.25"/><line class="cls-2" x1="18" y1="71.75" x2="18" y2="144.25"/><line class="cls-2" x1="42" y1="71.75" x2="42" y2="144.25"/><line class="cls-2" x1="66" y1="71.75" x2="66" y2="144.25"/><line class="cls-2" x1="71.75" y1="66" x2="144.25" y2="66"/><line class="cls-2" x1="71.75" y1="42" x2="144.25" y2="42"/><line class="cls-2" x1="71.75" y1="18" x2="144.25" y2="18"/><line class="cls-2" x1="71.75" y1="54" x2="144.25" y2="54"/><line class="cls-2" x1="71.75" y1="30" x2="144.25" y2="30"/><line class="cls-2" x1="71.75" y1="6" x2="144.25" y2="6"/><line class="cls-2" x1="6" y1="-0.25" x2="6" y2="72.25"/><line class="cls-2" x1="30" y1="-0.25" x2="30" y2="72.25"/><line class="cls-2" x1="54" y1="-0.25" x2="54" y2="72.25"/><line class="cls-2" x1="-0.25" y1="66" x2="72.25" y2="66"/><line class="cls-2" x1="-0.25" y1="42" x2="72.25" y2="42"/><line class="cls-2" x1="-0.25" y1="18" x2="72.25" y2="18"/><line class="cls-2" x1="-0.25" y1="54" x2="72.25" y2="54"/><line class="cls-2" x1="-0.25" y1="30" x2="72.25" y2="30"/><line class="cls-2" x1="-0.25" y1="6" x2="72.25" y2="6"/><line class="cls-2" x1="18" y1="-0.25" x2="18" y2="72.25"/><line class="cls-2" x1="42" y1="-0.25" x2="42" y2="72.25"/><line class="cls-2" x1="66" y1="-0.25" x2="66" y2="72.25"/><line class="cls-2" x1="-72.25" y1="66" x2="0.25" y2="66"/><line class="cls-2" x1="-72.25" y1="42" x2="0.25" y2="42"/><line class="cls-2" x1="-72.25" y1="18" x2="0.25" y2="18"/><line class="cls-2" x1="-72.25" y1="54" x2="0.25" y2="54"/><line class="cls-2" x1="-72.25" y1="30" x2="0.25" y2="30"/><line class="cls-2" x1="-72.25" y1="6" x2="0.25" y2="6"/><line class="cls-2" x1="6" y1="-72.25" x2="6" y2="0.25"/><line class="cls-2" x1="30" y1="-72.25" x2="30" y2="0.25"/><line class="cls-2" x1="54" y1="-72.25" x2="54" y2="0.25"/><line class="cls-2" x1="18" y1="-72.25" x2="18" y2="0.25"/><line class="cls-2" x1="42" y1="-72.25" x2="42" y2="0.25"/><line class="cls-2" x1="66" y1="-72.25" x2="66" y2="0.25"/></pattern></defs><title>flag_case02</title><g id="レイヤー_2" data-name="レイヤー 2"><g id="デザイン_PC_" data-name="デザイン（PC）"><polygon class="cls-3" points="69 0 0 0 0 78 0 78 0 78 0 78 0 78 34.5 105.69 69 78 69 78 69 0"/><polygon class="cls-4" points="65.55 0 65.55 75.94 65.55 75.94 34.5 100.86 3.45 75.94 3.45 75.94 3.45 75.93 3.45 75.93 3.45 75.93 3.45 0 65.55 0"/><polygon class="cls-5" points="65.55 0 65.55 75.94 65.55 75.94 34.5 100.86 3.45 75.94 3.45 75.94 3.45 75.93 3.45 75.93 3.45 75.93 3.45 0 65.55 0"/><polyline class="cls-6" points="3.45 0 3.45 75.93 3.45 75.93 3.45 75.93 3.45 75.94 3.45 75.94 34.5 100.86 65.55 75.94 65.55 75.94 65.55 0"/><path class="cls-7" d="M24.25,47.67v1a3.79,3.79,0,0,1-.3,1.5,4,4,0,0,1-.83,1.26,3.94,3.94,0,0,1-1.24.88,3.54,3.54,0,0,1-1.52.32,5.44,5.44,0,0,1-1.42-.19,3.32,3.32,0,0,1-1.29-.67,3.63,3.63,0,0,1-.95-1.24,4.31,4.31,0,0,1-.37-1.93V39.24a4,4,0,0,1,.29-1.56,3.6,3.6,0,0,1,.81-1.24,3.64,3.64,0,0,1,1.26-.83,4.25,4.25,0,0,1,1.62-.3,3.69,3.69,0,0,1,2.81,1.13,4,4,0,0,1,.83,1.3,4.48,4.48,0,0,1,.3,1.65v1H21.8v-.82a2,2,0,0,0-.41-1.25,1.32,1.32,0,0,0-1.1-.52,1.23,1.23,0,0,0-1.21.56,3,3,0,0,0-.3,1.43v8.73a2.21,2.21,0,0,0,.32,1.25,1.27,1.27,0,0,0,1.16.51,1.67,1.67,0,0,0,.52-.09,1.62,1.62,0,0,0,.52-.27,1.65,1.65,0,0,0,.36-.53,2.3,2.3,0,0,0,.14-.84v-.84Z"/><path class="cls-7" d="M25.14,52.54,29,35.45h2l3.82,17.09H32.36l-.72-3.67H28.3l-.72,3.67Zm6-6L30,40.37h-.05l-1.19,6.19Z"/><path class="cls-7" d="M43.93,40.37H41.48v-.55a2.57,2.57,0,0,0-.4-1.45,1.46,1.46,0,0,0-1.33-.61,1.53,1.53,0,0,0-.82.19,1.76,1.76,0,0,0-.5.48,2,2,0,0,0-.26.71,4.39,4.39,0,0,0-.07.82q0,.51,0,.84a1.56,1.56,0,0,0,.18.6,1.41,1.41,0,0,0,.42.46,3.34,3.34,0,0,0,.76.38l1.87.75a4.81,4.81,0,0,1,1.32.73,3.18,3.18,0,0,1,.79,1A4.35,4.35,0,0,1,43.83,46a13.63,13.63,0,0,1,.1,1.67,8.94,8.94,0,0,1-.22,2,4.11,4.11,0,0,1-.7,1.57,3.39,3.39,0,0,1-1.32,1.06,4.56,4.56,0,0,1-2,.38,4.29,4.29,0,0,1-1.65-.31,3.87,3.87,0,0,1-1.32-.86,4.28,4.28,0,0,1-.88-1.29,4,4,0,0,1-.32-1.59v-.91H38v.76a2,2,0,0,0,.4,1.22,1.55,1.55,0,0,0,1.33.54,2.2,2.2,0,0,0,1-.18,1.35,1.35,0,0,0,.54-.52,1.92,1.92,0,0,0,.22-.8c0-.32,0-.66,0-1.05a10.74,10.74,0,0,0,0-1.1,1.82,1.82,0,0,0-.19-.7,1.39,1.39,0,0,0-.44-.43,6.47,6.47,0,0,0-.74-.36l-1.75-.72a3.86,3.86,0,0,1-2.12-1.72A5.88,5.88,0,0,1,35.65,40a6.14,6.14,0,0,1,.26-1.83,4.2,4.2,0,0,1,.79-1.48,3.67,3.67,0,0,1,1.29-1,4.26,4.26,0,0,1,1.86-.37,4.1,4.1,0,0,1,1.66.33,4.33,4.33,0,0,1,1.31.89,3.7,3.7,0,0,1,1.11,2.64Z"/><path class="cls-7" d="M45.75,52.54V35.45h7.3v2.31H48.2v5h4.22v2.31H48.2v5h4.85v2.45Z"/><path class="cls-8" d="M24.25,47.67v1a3.79,3.79,0,0,1-.3,1.5,4,4,0,0,1-.83,1.26,3.94,3.94,0,0,1-1.24.88,3.54,3.54,0,0,1-1.52.32,5.44,5.44,0,0,1-1.42-.19,3.32,3.32,0,0,1-1.29-.67,3.63,3.63,0,0,1-.95-1.24,4.31,4.31,0,0,1-.37-1.93V39.24a4,4,0,0,1,.29-1.56,3.6,3.6,0,0,1,.81-1.24,3.64,3.64,0,0,1,1.26-.83,4.25,4.25,0,0,1,1.62-.3,3.69,3.69,0,0,1,2.81,1.13,4,4,0,0,1,.83,1.3,4.48,4.48,0,0,1,.3,1.65v1H21.8v-.82a2,2,0,0,0-.41-1.25,1.32,1.32,0,0,0-1.1-.52,1.23,1.23,0,0,0-1.21.56,3,3,0,0,0-.3,1.43v8.73a2.21,2.21,0,0,0,.32,1.25,1.27,1.27,0,0,0,1.16.51,1.67,1.67,0,0,0,.52-.09,1.62,1.62,0,0,0,.52-.27,1.65,1.65,0,0,0,.36-.53,2.3,2.3,0,0,0,.14-.84v-.84Z"/><path class="cls-8" d="M25.14,52.54,29,35.45h2l3.82,17.09H32.36l-.72-3.67H28.3l-.72,3.67Zm6-6L30,40.37h-.05l-1.19,6.19Z"/><path class="cls-8" d="M43.93,40.37H41.48v-.55a2.57,2.57,0,0,0-.4-1.45,1.46,1.46,0,0,0-1.33-.61,1.53,1.53,0,0,0-.82.19,1.76,1.76,0,0,0-.5.48,2,2,0,0,0-.26.71,4.39,4.39,0,0,0-.07.82q0,.51,0,.84a1.56,1.56,0,0,0,.18.6,1.41,1.41,0,0,0,.42.46,3.34,3.34,0,0,0,.76.38l1.87.75a4.81,4.81,0,0,1,1.32.73,3.18,3.18,0,0,1,.79,1A4.35,4.35,0,0,1,43.83,46a13.63,13.63,0,0,1,.1,1.67,8.94,8.94,0,0,1-.22,2,4.11,4.11,0,0,1-.7,1.57,3.39,3.39,0,0,1-1.32,1.06,4.56,4.56,0,0,1-2,.38,4.29,4.29,0,0,1-1.65-.31,3.87,3.87,0,0,1-1.32-.86,4.28,4.28,0,0,1-.88-1.29,4,4,0,0,1-.32-1.59v-.91H38v.76a2,2,0,0,0,.4,1.22,1.55,1.55,0,0,0,1.33.54,2.2,2.2,0,0,0,1-.18,1.35,1.35,0,0,0,.54-.52,1.92,1.92,0,0,0,.22-.8c0-.32,0-.66,0-1.05a10.74,10.74,0,0,0,0-1.1,1.82,1.82,0,0,0-.19-.7,1.39,1.39,0,0,0-.44-.43,6.47,6.47,0,0,0-.74-.36l-1.75-.72a3.86,3.86,0,0,1-2.12-1.72A5.88,5.88,0,0,1,35.65,40a6.14,6.14,0,0,1,.26-1.83,4.2,4.2,0,0,1,.79-1.48,3.67,3.67,0,0,1,1.29-1,4.26,4.26,0,0,1,1.86-.37,4.1,4.1,0,0,1,1.66.33,4.33,4.33,0,0,1,1.31.89,3.7,3.7,0,0,1,1.11,2.64Z"/><path class="cls-8" d="M45.75,52.54V35.45h7.3v2.31H48.2v5h4.22v2.31H48.2v5h4.85v2.45Z"/><path class="cls-7" d="M30.23,79.06v-2.3l4.42-8.33A3,3,0,0,0,35,67.34c0-.31,0-.7,0-1.16,0-.21,0-.43,0-.66a1.67,1.67,0,0,0-.13-.62A1.28,1.28,0,0,0,33,64.59a1.19,1.19,0,0,0-.33.91v1.4H30.23V65.55a3.67,3.67,0,0,1,1.08-2.61,3.56,3.56,0,0,1,1.16-.81,3.44,3.44,0,0,1,1.44-.3,3.61,3.61,0,0,1,1.64.35,3.19,3.19,0,0,1,1.14,1,4.12,4.12,0,0,1,.64,1.37,6.56,6.56,0,0,1,.2,1.63c0,.41,0,.76,0,1a6.89,6.89,0,0,1-.1.81,3.71,3.71,0,0,1-.24.76c-.11.26-.26.57-.46.94l-3.6,6.94h4.42v2.44Z"/><path class="cls-8" d="M30.23,79.06v-2.3l4.42-8.33A3,3,0,0,0,35,67.34c0-.31,0-.7,0-1.16,0-.21,0-.43,0-.66a1.67,1.67,0,0,0-.13-.62A1.28,1.28,0,0,0,33,64.59a1.19,1.19,0,0,0-.33.91v1.4H30.23V65.55a3.67,3.67,0,0,1,1.08-2.61,3.56,3.56,0,0,1,1.16-.81,3.44,3.44,0,0,1,1.44-.3,3.61,3.61,0,0,1,1.64.35,3.19,3.19,0,0,1,1.14,1,4.12,4.12,0,0,1,.64,1.37,6.56,6.56,0,0,1,.2,1.63c0,.41,0,.76,0,1a6.89,6.89,0,0,1-.1.81,3.71,3.71,0,0,1-.24.76c-.11.26-.26.57-.46.94l-3.6,6.94h4.42v2.44Z"/></g></g></svg>