<svg xmlns="http://www.w3.org/2000/svg" viewBox="0 0 22.34 19.08"><defs><style>.cls-1{fill:#fff;}.cls-2{fill:#36c;}</style></defs><title>ico_arrow_right</title><g id="レイヤー_2" data-name="レイヤー 2"><g id="デザイン_PC_" data-name="デザイン（PC）"><rect class="cls-1" y="8.81" width="22.34" height="1.49" rx="0.74" ry="0.74"/><path class="cls-1" d="M13.29.2a.67.67,0,0,0-1,0l-.09.09a.69.69,0,0,0,0,1l6.07,6.07h2.11Z"/><rect class="cls-1" x="10.25" y="13.22" width="13.88" height="1.49" rx="0.74" ry="0.74" transform="translate(-4.84 16.24) rotate(-45)"/><rect class="cls-2" y="8.81" width="22.34" height="1.49" rx="0.74" ry="0.74"/><path class="cls-2" d="M13.29.2a.67.67,0,0,0-1,0l-.09.09a.69.69,0,0,0,0,1l6.07,6.07h2.11Z"/><rect class="cls-2" x="10.25" y="13.22" width="13.88" height="1.49" rx="0.74" ry="0.74" transform="translate(-4.84 16.24) rotate(-45)"/></g></g></svg>