<svg xmlns="http://www.w3.org/2000/svg" viewBox="0 0 184.01 173.24"><defs><style>.cls-1,.cls-10,.cls-8{fill:#d1e7f2;}.cls-1,.cls-11,.cls-3,.cls-4,.cls-5,.cls-7,.cls-8,.cls-9{stroke:#36c;}.cls-1,.cls-11,.cls-3,.cls-8,.cls-9{stroke-miterlimit:10;}.cls-1,.cls-11,.cls-3,.cls-4,.cls-5,.cls-8{stroke-width:2px;}.cls-2,.cls-3,.cls-4,.cls-7{fill:#fff;}.cls-4,.cls-5,.cls-7,.cls-8{stroke-linecap:round;}.cls-4,.cls-5,.cls-7{stroke-linejoin:round;}.cls-11,.cls-5{fill:none;}.cls-6,.cls-9{fill:#36c;}</style></defs><title>ico_str04</title><g id="レイヤー_2" data-name="レイヤー 2"><g id="デザイン_PC_" data-name="デザイン（PC）"><path class="cls-1" d="M78.46,93.72l15.76,3.54s6.32,1.72,8.57,6.29c1.46,3,17.75,68.69,17.75,68.69H23s-4.24.26-6.72-2.39S2.79,129.91,1.6,122.63.39,104.87,7.37,101.35C12,99,37.68,92.05,37.68,92.05L60,99.89Z"/><path class="cls-2" d="M63.51,98.16,41.82,86.31V72.13S55.23,84.7,62.53,85.28s8.86-1.62,8.86-1.62v8.39Z"/><path class="cls-3" d="M63.51,19.92c-13.58,0-24.84,11.71-27,27.08a6.17,6.17,0,0,0-2.23-.09c-4,.58-6.62,4.89-5.93,9.62s4.46,8.11,8.43,7.53A6.14,6.14,0,0,0,38,63.75,35.33,35.33,0,0,0,57,84.11c6.37,2.87,14.36-.45,14.36-.45C80.24,78.58,91,67.2,91,52.47,91,34.5,78.67,19.92,63.51,19.92Z"/><path class="cls-4" d="M62.15,70.69s5,3.25,11.95,0"/><path class="cls-4" d="M83.52,49.92a5.45,5.45,0,0,0-7.07-.09"/><path class="cls-4" d="M63.51,49.92a5.45,5.45,0,0,0-7.07-.09"/><circle class="cls-5" cx="80.48" cy="51.52" r="8.27"/><circle class="cls-5" cx="58.88" cy="51.52" r="8.27"/><path class="cls-6" d="M80.53,10.14S69.94-4.7,48.76,1.53s-25,29-25,29-1.35,9.74,0,14.29c0,0,1.52,7.65,3.37,9.51.55.26,3.24-6.61,3.24-6.61l6.9.12,1.91-5.89C59.15,38.28,75.44,28,75.44,28a23.13,23.13,0,0,0,15,12.71S102.53,19.28,80.53,10.14Z"/><line class="cls-5" x1="67.63" y1="48.54" x2="71.23" y2="48.54"/><line class="cls-5" x1="49.64" y1="49.23" x2="36.02" y2="46.86"/><polyline class="cls-4" points="71.23 55.48 73.17 60.76 72.2 62.96"/><line class="cls-4" x1="76.06" y1="39.16" x2="83.91" y2="39.58"/><line class="cls-4" x1="52.07" y1="39.66" x2="59.92" y2="39.14"/><line class="cls-4" x1="71.39" y1="83.66" x2="71.39" y2="93.85"/><line class="cls-4" x1="41.82" y1="71.41" x2="41.82" y2="92.05"/><polygon class="cls-4" points="39.86 85.28 64.33 98.16 48.63 109.25 37.69 92.05 39.86 85.28"/><polygon class="cls-4" points="74.1 90.11 64.33 98.16 72.2 107.84 79.01 93.85 74.1 90.11"/><circle class="cls-7" cx="63.51" cy="107.84" r="2.37"/><circle class="cls-7" cx="63.51" cy="119.24" r="2.37"/><circle class="cls-7" cx="63.51" cy="129.78" r="2.37"/><path class="cls-3" d="M49.64,154.58H60s9.82-4,14.12-3.24l-3.44,15.28h-21Z"/><path class="cls-8" d="M24,122.63l7.14,23.59s0,2,2.68,2.5S49.64,150,49.64,150v22.27"/><polygon class="cls-4" points="54.97 166.62 54.97 154.58 54.97 152.02 49.64 152.02 49.64 166.62 54.97 166.62"/><path class="cls-9" d="M33.6,63.7s.55.7,1.39,1.86c2,2.78,5.51,8.19,6.83,13.08V72.13s-3.76-5.08-3.52-7.44A8.77,8.77,0,0,1,33.6,63.7Z"/><path class="cls-10" d="M162.58,170.33a3,3,0,0,1-2.62,1.91H65.51a1.37,1.37,0,0,1-1.38-1.91l20.33-63a2.94,2.94,0,0,1,2.62-1.9h94.45a1.37,1.37,0,0,1,1.38,1.9Z"/><path class="cls-11" d="M162.58,170.33a3,3,0,0,1-2.62,1.91H65.51a1.37,1.37,0,0,1-1.38-1.91l20.33-63a2.94,2.94,0,0,1,2.62-1.9h94.45a1.37,1.37,0,0,1,1.38,1.9Z"/><path class="cls-9" d="M37.68,76.63S38,69.92,36,66.13s4.25,6,4.25,6Z"/></g></g></svg>