<svg xmlns="http://www.w3.org/2000/svg" viewBox="0 0 29.07 26.16"><defs><style>.cls-1{fill:#36c;}</style></defs><title>ico_check</title><g id="レイヤー_2" data-name="レイヤー 2"><g id="デザイン_PC_" data-name="デザイン（PC）"><path class="cls-1" d="M25.06,9.7V24.18a2,2,0,0,1-2,2H2a2,2,0,0,1-1.4-.58A2,2,0,0,1,0,24.18V3.07A2,2,0,0,1,.58,1.68,2,2,0,0,1,2,1.1H23.09a1.91,1.91,0,0,1,.86.2l-1.6,1.44H2a.3.3,0,0,0-.24.1.29.29,0,0,0-.1.23V24.18a.33.33,0,0,0,.1.24.33.33,0,0,0,.24.1H23.09a.34.34,0,0,0,.33-.34V11.46Z"/><polygon class="cls-1" points="7 16.55 6.87 16.3 5.7 10.13 6.52 9.68 11.67 14.7 28.11 0 28.93 0.33 29.07 2.5 28.94 2.87 12.02 21.09 11.3 21.09 7 16.55"/></g></g></svg>