<svg xmlns="http://www.w3.org/2000/svg" viewBox="0 0 133.97 126.03"><defs><style>.cls-1,.cls-10,.cls-8{fill:#d1e7f2;}.cls-1,.cls-11,.cls-3,.cls-4,.cls-5,.cls-7,.cls-8,.cls-9{stroke:#36c;}.cls-1,.cls-11,.cls-3,.cls-8,.cls-9{stroke-miterlimit:10;}.cls-1,.cls-11,.cls-3,.cls-4,.cls-5,.cls-8{stroke-width:2px;}.cls-2,.cls-3,.cls-4,.cls-7{fill:#fff;}.cls-4,.cls-5,.cls-7,.cls-8{stroke-linecap:round;}.cls-4,.cls-5,.cls-7{stroke-linejoin:round;}.cls-11,.cls-5{fill:none;}.cls-6,.cls-9{fill:#36c;}</style></defs><title>ico_develop</title><g id="レイヤー_2" data-name="レイヤー 2"><g id="デザイン_PC_" data-name="デザイン（PC）"><path class="cls-1" d="M57.23,68,68.66,70.6s4.59,1.24,6.23,4.56C76,77.3,87.77,125,87.77,125H16.94s-3.07.19-4.87-1.73S2.3,94.3,1.43,89,.55,76.13,5.63,73.56c3.32-1.67,22-6.74,22-6.74l16.18,5.69Z"/><path class="cls-2" d="M46.38,71.25l-15.75-8.6V52.36s9.74,9.13,15,9.54,6.43-1.17,6.43-1.17v6.09Z"/><path class="cls-3" d="M46.38,14.46c-9.86,0-18,8.5-19.63,19.65a4.63,4.63,0,0,0-1.62-.06c-2.88.42-4.81,3.55-4.31,7s3.24,5.88,6.12,5.46a4.21,4.21,0,0,0,.88-.23A25.65,25.65,0,0,0,41.67,61.06c4.63,2.08,10.43-.33,10.43-.33C58.52,57,66.29,48.78,66.29,38.09,66.29,25,57.38,14.46,46.38,14.46Z"/><path class="cls-4" d="M45.39,51.31s3.61,2.36,8.67,0"/><path class="cls-4" d="M60.9,36.24a3.94,3.94,0,0,0-5.13-.07"/><path class="cls-4" d="M46.38,36.24a4,4,0,0,0-5.14-.07"/><circle class="cls-5" cx="58.69" cy="37.4" r="6"/><circle class="cls-5" cx="43.02" cy="37.4" r="6"/><path class="cls-6" d="M58.73,7.36S51-3.41,35.67,1.11s-18.16,21-18.16,21-1,7.07,0,10.37c0,0,1.1,5.56,2.45,6.91.4.19,2.35-4.8,2.35-4.8l5,.09,1.39-4.28A83.16,83.16,0,0,0,55,20.32,16.79,16.79,0,0,0,66,29.55S74.7,14,58.73,7.36Z"/><line class="cls-5" x1="49.36" y1="35.23" x2="51.98" y2="35.23"/><line class="cls-5" x1="36.31" y1="35.73" x2="26.42" y2="34.02"/><polyline class="cls-4" points="51.98 40.28 53.39 44.1 52.69 45.7"/><line class="cls-4" x1="55.48" y1="28.42" x2="61.18" y2="28.73"/><line class="cls-4" x1="38.07" y1="28.79" x2="43.77" y2="28.41"/><line class="cls-4" x1="52.1" y1="60.73" x2="52.1" y2="68.12"/><line class="cls-4" x1="30.63" y1="51.84" x2="30.63" y2="66.82"/><polygon class="cls-4" points="29.21 61.9 46.97 71.25 35.57 79.3 27.63 66.82 29.21 61.9"/><polygon class="cls-4" points="54.06 65.41 46.97 71.25 52.69 78.28 57.62 68.12 54.06 65.41"/><circle class="cls-7" cx="46.38" cy="78.28" r="1.72"/><circle class="cls-7" cx="46.38" cy="86.55" r="1.72"/><circle class="cls-7" cx="46.38" cy="94.2" r="1.72"/><path class="cls-3" d="M36.31,112.21h7.5s7.13-2.94,10.25-2.35l-2.49,11.08H36.31Z"/><path class="cls-8" d="M17.69,89l5.19,17.13s0,1.42,1.95,1.81,11.48.91,11.48.91V125"/><polygon class="cls-4" points="40.18 120.94 40.18 112.21 40.18 110.35 36.31 110.35 36.31 120.94 40.18 120.94"/><path class="cls-9" d="M24.66,46.24s.41.5,1,1.35c1.43,2,4,5.94,5,9.49V52.36S27.9,48.67,28.07,47A6.38,6.38,0,0,1,24.66,46.24Z"/><path class="cls-10" d="M118.45,123.12a2.91,2.91,0,0,1-2.61,1.9H48.38a1.37,1.37,0,0,1-1.39-1.9L61.42,78.46A2.91,2.91,0,0,1,64,76.56h67.46a1.37,1.37,0,0,1,1.39,1.9Z"/><path class="cls-11" d="M118.45,123.12a2.91,2.91,0,0,1-2.61,1.9H48.38a1.37,1.37,0,0,1-1.39-1.9L61.42,78.46A2.91,2.91,0,0,1,64,76.56h67.46a1.37,1.37,0,0,1,1.39,1.9Z"/><path class="cls-9" d="M27.63,55.63s.21-4.88-1.21-7.63,3.08,4.36,3.08,4.36Z"/></g></g></svg>