<svg xmlns="http://www.w3.org/2000/svg" viewBox="0 0 187.73 173.04"><defs><style>.cls-1,.cls-10,.cls-6{fill:#36c;}.cls-11,.cls-2,.cls-4,.cls-9{fill:#fff;}.cls-10,.cls-11,.cls-2,.cls-3,.cls-4,.cls-5,.cls-6,.cls-8{stroke:#36c;}.cls-2,.cls-5{stroke-linecap:round;}.cls-10,.cls-11,.cls-2{stroke-linejoin:round;}.cls-10,.cls-11,.cls-2,.cls-3,.cls-4,.cls-5,.cls-8{stroke-width:2px;}.cls-3,.cls-5,.cls-7{fill:#d1e7f2;}.cls-3,.cls-4,.cls-5,.cls-6,.cls-8{stroke-miterlimit:10;}.cls-8{fill:none;}</style></defs><title>ico_str02</title><g id="レイヤー_2" data-name="レイヤー 2"><g id="デザイン_PC_" data-name="デザイン（PC）"><path class="cls-1" d="M91.36,23.24s-5,66.13,6.37,75.5c0,0-75.7-1.15-80.3-1.15,15.48-37.29,2.7-39.17,9.92-69C32.69,6.59,91.36,23.24,91.36,23.24Z"/><path class="cls-1" d="M90.29,57.05S109.37,4.13,65.32.27c-39.76-3.48-39.16,27.21-40.27,43s7,21.37,14.24,27.11Z"/><path class="cls-2" d="M71.82,80.85v8.64L84.3,92.38,69.62,104.05,51,104.71,41,101.1l-5.3-3-5.88-6.63s9.28-2.62,11.6-3.18V68.24"/><path class="cls-3" d="M82.1,91.88l13.21,3s6.51,1.76,8.83,6.47c1.49,3,18.26,70.71,18.26,70.71H22s-4.36.27-6.91-2.46S2.17,128.5,1.24,121C.05,111.24,3,100.53,15,95.65a119.66,119.66,0,0,1,14-4.06s15.23,10.91,31.34,10.58C72.4,101.93,82.1,91.88,82.1,91.88Z"/><path class="cls-4" d="M63.7,15.24c-14,0-25.58,12-27.84,27.87A6.27,6.27,0,0,0,33.57,43c-4.08.59-6.82,5-6.11,9.9s4.6,8.35,8.68,7.75a6.36,6.36,0,0,0,1.25-.32A36.34,36.34,0,0,0,57,81.31c6.56,3,14.79-.46,14.79-.46,9.1-5.23,17.38-11.93,17.38-27.09C89.2,35.25,79.3,15.24,63.7,15.24Z"/><path class="cls-2" d="M64.65,67.5s4.14,3.34,9.95,0"/><path class="cls-2" d="M61.91,38.76s-4.73-2.44-9.75,2"/><path class="cls-2" d="M83.88,40.76s-3.34-4.14-9.73-2.09"/><polyline class="cls-2" points="72.5 53.76 73.53 57.34 72.37 59.52"/><line class="cls-2" x1="76.62" y1="35.04" x2="84.7" y2="35.47"/><path class="cls-4" d="M49.42,153.85H60.06s10.11-4.16,14.54-3.33l-3.54,15.72H49.42Z"/><path class="cls-5" d="M24.1,120.43l5.83,24.74a3.83,3.83,0,0,0,3.21,2.65c2.76.55,16.28,1.29,16.28,1.29V172"/><polygon class="cls-2" points="54.91 166.25 54.91 153.85 54.91 151.22 49.42 151.22 49.42 166.25 54.91 166.25"/><path class="cls-6" d="M32.91,60.3s.57.72,1.43,1.92c2,2.85,5.67,8.42,7,13.46V69s-3.87-5.23-3.62-7.66A9.11,9.11,0,0,1,32.91,60.3Z"/><path class="cls-7" d="M165.66,170.13a2.94,2.94,0,0,1-2.61,1.9H65.7a1.37,1.37,0,0,1-1.38-1.9l21-64.93a2.92,2.92,0,0,1,2.61-1.9h97.35a1.37,1.37,0,0,1,1.38,1.9Z"/><path class="cls-8" d="M165.66,170.13a2.94,2.94,0,0,1-2.61,1.9H65.7a1.37,1.37,0,0,1-1.38-1.9l21-64.93a2.92,2.92,0,0,1,2.61-1.9h97.35a1.37,1.37,0,0,1,1.38,1.9Z"/><circle class="cls-1" cx="60.47" cy="47.32" r="2.83"/><circle class="cls-1" cx="79.02" cy="47.32" r="2.83"/><path class="cls-1" d="M49.42,28.07s-.23,6.77-12.28,16.42L33.57,43l2.65-19.34,15.7-10,9.34-2.34L74.6,13.14,87.53,22.8,92,37.74S65.48,43.59,49.42,28.07Z"/><circle class="cls-9" cx="34.54" cy="62.8" r="1.99"/><polygon class="cls-1" points="138.06 80.2 147.72 80.2 138.1 89.22 138.06 80.2"/><path class="cls-1" d="M145.19,81.2l-6.1,5.72,0-5.72h6.13m5.06-2h-13.2l.06,12.32L150.25,79.2Z"/><polygon class="cls-10" points="172.84 68.48 172.84 14.14 121.88 14.14 121.88 81.41 159.91 81.41 172.84 68.48"/><polygon class="cls-11" points="170.53 66.6 170.53 12.26 119.57 12.26 119.57 79.53 157.59 79.53 170.53 66.6"/><polygon class="cls-11" points="157.59 79.03 170.53 66.09 157.59 66.09 157.59 79.03"/><line class="cls-11" x1="127.44" y1="21.81" x2="162.65" y2="21.81"/><line class="cls-11" x1="127.44" y1="29.46" x2="162.65" y2="29.46"/><line class="cls-11" x1="127.44" y1="37.12" x2="162.65" y2="37.12"/><line class="cls-11" x1="127.44" y1="44.78" x2="162.65" y2="44.78"/><line class="cls-11" x1="127.44" y1="52.43" x2="162.65" y2="52.43"/><line class="cls-11" x1="127.44" y1="59.7" x2="152.27" y2="59.7"/><line class="cls-11" x1="127.44" y1="67.35" x2="152.27" y2="67.35"/></g></g></svg>