<svg xmlns="http://www.w3.org/2000/svg" viewBox="0 0 111.69 128.98"><defs><style>.cls-1,.cls-4{fill:#fff;}.cls-1,.cls-2,.cls-3,.cls-4,.cls-5{stroke:#36c;}.cls-1,.cls-5{stroke-miterlimit:10;}.cls-1,.cls-2,.cls-3{stroke-width:2px;}.cls-2,.cls-5{fill:none;}.cls-2,.cls-3,.cls-4{stroke-linejoin:round;}.cls-3{fill:#d1e7f2;}.cls-4,.cls-5{stroke-linecap:round;stroke-width:3px;}</style></defs><title>ico_knowhow</title><g id="レイヤー_2" data-name="レイヤー 2"><g id="デザイン_PC_" data-name="デザイン（PC）"><polygon class="cls-1" points="18.66 34.99 25.05 20.79 43.5 10.85 69.43 10.85 89.66 17.24 98.54 30.02 101.38 43.15 99.6 53.8 83.27 57.35 60.02 51.67 49.55 44.93 30.38 41.02 18.66 34.99"/><polyline class="cls-2" points="30.58 29.93 30.38 41.02 45.58 31.15 49.55 44.93 72.72 39.81 60.02 51.67"/><polyline class="cls-2" points="18.66 34.99 30.58 29.93 25.05 20.79 39.96 23.29 43.5 10.85"/><polygon class="cls-2" points="45.58 31.15 30.58 29.93 39.96 23.29 45.58 31.15"/><polygon class="cls-2" points="69.43 10.85 39.96 23.29 61.67 25.61 69.43 10.85"/><polygon class="cls-2" points="89.66 17.24 61.67 25.61 72.72 39.81 89.66 17.24"/><polyline class="cls-2" points="98.54 30.02 72.72 39.81 101.38 43.15 86.1 47.49 99.6 53.8"/><polyline class="cls-2" points="61.67 25.61 45.58 31.15 72.72 39.81 86.1 47.49 83.27 57.35"/><circle class="cls-3" cx="40.73" cy="23.28" r="3.48"/><circle class="cls-3" cx="72.72" cy="39.81" r="3.48"/><circle class="cls-3" cx="49.06" cy="44.28" r="3.48"/><circle class="cls-3" cx="97.3" cy="29.93" r="3.48"/><circle class="cls-3" cx="69.24" cy="10.85" r="3.48"/><circle class="cls-3" cx="98.93" cy="53.8" r="3.48"/><path class="cls-4" d="M12.5,85.29s3.6,2.35,8.67,0"/><path class="cls-5" d="M65.27,94.89,32.13,108.72s-10.55,4.46-15-6.91S11.82,79.9,2.39,65.44c0,0-2.24-3.45.38-6.07s6.39-3.93,7.37-14.18C11.41,31.81,16.22,9,43.5,2.65a129.38,129.38,0,0,1,30.26-.47C89.44,4,101.29,14.06,106,25.61s6.91,20.14-1.86,38.71-9.7,15.39-13.06,29.29-5.13,28.18-4.2,33.87"/><path class="cls-5" d="M45.58,103.11a69.47,69.47,0,0,1-2.08,24.37"/></g></g></svg>