<svg xmlns="http://www.w3.org/2000/svg" viewBox="0 0 199.41 167.71"><defs><style>.cls-1,.cls-4{fill:#fff;}.cls-1,.cls-2,.cls-3,.cls-5{stroke:#36c;stroke-width:2px;}.cls-1,.cls-5{stroke-miterlimit:10;}.cls-2{fill:#d1e7f2;}.cls-2,.cls-3{stroke-linejoin:round;}.cls-3,.cls-6{fill:#36c;}.cls-5{fill:none;}</style></defs><title>ico_str05</title><g id="レイヤー_2" data-name="レイヤー 2"><g id="デザイン_PC_" data-name="デザイン（PC）"><circle class="cls-1" cx="6.12" cy="78.11" r="5.12"/><rect class="cls-2" x="33.77" y="66.12" width="140.18" height="100.59"/><rect class="cls-3" x="33.77" y="65.27" width="140.18" height="11.29"/><circle class="cls-4" cx="40.02" cy="70.96" r="1.87"/><circle class="cls-4" cx="46.06" cy="70.96" r="1.87"/><circle class="cls-4" cx="52.1" cy="70.96" r="1.87"/><rect class="cls-1" x="48.5" y="90.26" width="77.35" height="31.78"/><line class="cls-5" x1="47.02" y1="129.92" x2="127.28" y2="129.92"/><line class="cls-5" x1="47.02" y1="137.8" x2="127.28" y2="137.8"/><line class="cls-5" x1="47.02" y1="145.69" x2="115.06" y2="145.69"/><line class="cls-5" x1="139.79" y1="90.95" x2="160.68" y2="90.95"/><line class="cls-5" x1="139.79" y1="98.84" x2="160.68" y2="98.84"/><line class="cls-5" x1="139.79" y1="106.72" x2="160.68" y2="106.72"/><line class="cls-5" x1="139.79" y1="114.61" x2="160.68" y2="114.61"/><line class="cls-5" x1="139.79" y1="122.5" x2="160.68" y2="122.5"/><line class="cls-5" x1="139.79" y1="130.38" x2="160.68" y2="130.38"/><circle class="cls-1" cx="127.28" cy="51.35" r="10.23"/><circle class="cls-1" cx="193.3" cy="101.03" r="5.12"/><circle class="cls-1" cx="56.93" cy="14.15" r="5.12"/><circle class="cls-1" cx="38.15" cy="51.35" r="27.41"/><circle class="cls-1" cx="104.58" cy="28.41" r="27.41"/><circle class="cls-1" cx="171.01" cy="55.82" r="27.41"/><circle class="cls-1" cx="33.77" cy="83.22" r="10.23"/><circle class="cls-1" cx="164.72" cy="19.26" r="6.59"/><path id="_パス_" data-name="&lt;パス&gt;" class="cls-6" d="M37.38,50v4.12h9.84A8.74,8.74,0,0,1,45,59.3a10.07,10.07,0,0,1-7.6,3,10.95,10.95,0,0,1,0-21.89,10.46,10.46,0,0,1,7.42,2.95l2.89-2.9a14.19,14.19,0,0,0-10.31-4.18,15.06,15.06,0,1,0,0,30.12,13.77,13.77,0,0,0,10.51-4.22,13.58,13.58,0,0,0,3.57-9.62A13.35,13.35,0,0,0,51.24,50Z"/><path d="M105.87,17.94a2,2,0,0,1,1.71-1,2.21,2.21,0,0,1,2.15,1.93,2.19,2.19,0,0,1-.36,1.15l-7.53,11V38.8a1.76,1.76,0,0,1-2,1.93c-1.43,0-2-.7-2-1.93V31L90.24,20a2.27,2.27,0,0,1-.36-1.09,2.21,2.21,0,0,1,2.21-2,2,2,0,0,1,1.65,1l6.08,9Z"/><path d="M117.43,38.38A2.34,2.34,0,1,1,115.11,36,2.33,2.33,0,0,1,117.43,38.38Zm-1.09-5.94c-.08.79-.34,1.4-1.2,1.4s-1.18-.45-1.26-1.37l-.82-7.76v-5.9a1.76,1.76,0,0,1,2-1.91c1.43,0,2,.7,2,1.91v5.9Z"/><path class="cls-6" d="M105.87,17.94a2,2,0,0,1,1.71-1,2.21,2.21,0,0,1,2.15,1.93,2.19,2.19,0,0,1-.36,1.15l-7.53,11V38.8a1.76,1.76,0,0,1-2,1.93c-1.43,0-2-.7-2-1.93V31L90.24,20a2.27,2.27,0,0,1-.36-1.09,2.21,2.21,0,0,1,2.21-2,2,2,0,0,1,1.65,1l6.08,9Z"/><path class="cls-6" d="M117.43,38.38A2.34,2.34,0,1,1,115.11,36,2.33,2.33,0,0,1,117.43,38.38Zm-1.09-5.94c-.08.79-.34,1.4-1.2,1.4s-1.18-.45-1.26-1.37l-.82-7.76v-5.9a1.76,1.76,0,0,1,2-1.91c1.43,0,2,.7,2,1.91v5.9Z"/><path class="cls-6" d="M155.45,66V46.08h4.23a4.91,4.91,0,0,1,3.74,1.35,5.29,5.29,0,0,1,1.27,3.8v9.33a5.56,5.56,0,0,1-1.36,4.13,5.36,5.36,0,0,1-3.9,1.33Zm2.86-17.25V63.33h1.31a2.11,2.11,0,0,0,1.71-.6,2.88,2.88,0,0,0,.51-1.89V51.23a3,3,0,0,0-.48-1.82,2,2,0,0,0-1.74-.64Z"/><path class="cls-6" d="M176.62,51.82h-2.86v-.64a3,3,0,0,0-.46-1.7,1.71,1.71,0,0,0-1.55-.71,1.78,1.78,0,0,0-.95.22,1.87,1.87,0,0,0-.59.56,2.5,2.5,0,0,0-.31.83,5,5,0,0,0-.08,1,8.89,8.89,0,0,0,0,1,1.85,1.85,0,0,0,.21.7,1.48,1.48,0,0,0,.49.54,4.43,4.43,0,0,0,.88.45l2.18.86a5.41,5.41,0,0,1,1.54.86,3.59,3.59,0,0,1,.93,1.13,5.71,5.71,0,0,1,.42,1.53,15.9,15.9,0,0,1,.11,1.94,10.18,10.18,0,0,1-.25,2.34,5.08,5.08,0,0,1-.81,1.84A4.16,4.16,0,0,1,174,65.74a5.44,5.44,0,0,1-2.33.44,5.14,5.14,0,0,1-1.93-.36,4.53,4.53,0,0,1-1.54-1,4.86,4.86,0,0,1-1-1.5,4.51,4.51,0,0,1-.38-1.86V60.39h2.86v.89a2.32,2.32,0,0,0,.46,1.42,1.79,1.79,0,0,0,1.55.63,2.52,2.52,0,0,0,1.14-.21,1.52,1.52,0,0,0,.63-.6,2.25,2.25,0,0,0,.26-.94c0-.36,0-.77,0-1.22s0-1,0-1.29a2.16,2.16,0,0,0-.23-.81,1.62,1.62,0,0,0-.51-.5,7,7,0,0,0-.86-.42l-2-.84a4.54,4.54,0,0,1-2.48-2,6.88,6.88,0,0,1-.63-3.12,7.17,7.17,0,0,1,.31-2.13,4.71,4.71,0,0,1,.92-1.73,4.15,4.15,0,0,1,1.5-1.16,5,5,0,0,1,2.17-.44,4.78,4.78,0,0,1,1.95.39,5.26,5.26,0,0,1,1.52,1,4.32,4.32,0,0,1,1.29,3.08Z"/><path class="cls-6" d="M178.75,66V46.08H183a6.18,6.18,0,0,1,2.07.31,4,4,0,0,1,1.63,1.09,4.34,4.34,0,0,1,1,1.83,11.84,11.84,0,0,1,.28,2.85,14.45,14.45,0,0,1-.16,2.27,4.63,4.63,0,0,1-.66,1.73,4.24,4.24,0,0,1-1.56,1.53,5.37,5.37,0,0,1-2.58.54H181.6V66Zm2.85-17.25v6.78H183a2.9,2.9,0,0,0,1.34-.26,1.53,1.53,0,0,0,.7-.7,2.55,2.55,0,0,0,.27-1c0-.41,0-.87,0-1.38s0-.91,0-1.33a2.87,2.87,0,0,0-.25-1.1,1.64,1.64,0,0,0-.67-.73,2.66,2.66,0,0,0-1.29-.25Z"/></g></g></svg>