<svg xmlns="http://www.w3.org/2000/svg" viewBox="0 0 139.58 161.47"><defs><style>.cls-1{fill:#d1e7f2;}.cls-1,.cls-2,.cls-3,.cls-4,.cls-5{stroke:#36c;stroke-width:2px;}.cls-1,.cls-2,.cls-3,.cls-4{stroke-linejoin:round;}.cls-2,.cls-5{fill:none;}.cls-3,.cls-4{fill:#fff;}.cls-4,.cls-5{stroke-linecap:round;}.cls-5{stroke-miterlimit:10;}</style></defs><title>ico_str01</title><g id="レイヤー_2" data-name="レイヤー 2"><g id="デザイン_PC_" data-name="デザイン（PC）"><polygon class="cls-1" points="22.72 43.39 30.81 25.42 54.17 12.83 86.99 12.83 112.6 20.92 123.84 37.1 127.43 53.73 125.19 67.21 104.51 71.7 75.08 64.51 61.82 55.98 37.55 51.03 22.72 43.39"/><polyline class="cls-2" points="37.81 36.99 37.55 51.03 56.8 38.53 61.82 55.98 91.16 49.49 75.08 64.51"/><polyline class="cls-2" points="22.72 43.39 37.81 36.99 30.81 25.42 49.69 28.58 54.17 12.83"/><polygon class="cls-2" points="56.8 38.53 37.81 36.99 49.69 28.58 56.8 38.53"/><polygon class="cls-2" points="86.99 12.83 49.69 28.58 77.17 31.52 86.99 12.83"/><polygon class="cls-2" points="112.6 20.92 77.17 31.52 91.16 49.49 112.6 20.92"/><polyline class="cls-2" points="123.84 37.1 91.16 49.49 127.43 53.73 108.09 59.21 125.19 67.21"/><polyline class="cls-2" points="77.17 31.52 56.8 38.53 91.16 49.49 108.09 59.21 104.51 71.7"/><circle class="cls-3" cx="50.66" cy="28.58" r="4.41"/><circle class="cls-3" cx="91.16" cy="49.49" r="4.41"/><circle class="cls-3" cx="61.2" cy="55.16" r="4.41"/><circle class="cls-3" cx="122.28" cy="36.99" r="4.41"/><circle class="cls-3" cx="86.75" cy="12.83" r="4.41"/><circle class="cls-3" cx="124.33" cy="67.21" r="4.41"/><path class="cls-4" d="M14.92,107.06s4.57,3,11,0"/><path class="cls-5" d="M81.72,119.22,39.78,136.73s-13.36,5.64-19-8.76-6.72-27.73-18.65-46c0,0-2.83-4.37.47-7.68s8.1-5,9.33-18c1.61-16.94,7.7-45.82,42.24-53.86a164,164,0,0,1,38.31-.59c19.84,2.25,34.84,15,40.86,29.66s8.74,25.5-2.36,49S118.7,100,114.44,117.6s-6.49,35.67-5.31,42.87"/><path class="cls-5" d="M56.8,129.63a87.87,87.87,0,0,1-2.63,30.84"/></g></g></svg>