<svg xmlns="http://www.w3.org/2000/svg" viewBox="0 0 187.6 144.12"><defs><style>.cls-1{fill:#b4caed;}.cls-2{fill:none;}.cls-2,.cls-4{stroke:#36c;stroke-miterlimit:10;stroke-width:2px;}.cls-3{fill:#d9e4f4;}.cls-4{fill:#fff;}.cls-5{fill:#d1e7f2;}</style></defs><title>ico_str03</title><g id="レイヤー_2" data-name="レイヤー 2"><g id="デザイン_PC_" data-name="デザイン（PC）"><path class="cls-1" d="M1,119.32l30.9-16.78,31,12.7,30.89-22.9,30.9,8.62,30.89-28.34L186.51,50v85.92s1.19,7.25-8.78,7.25H8.38S1,145.62,1,132.47Z"/><path class="cls-2" d="M1.5,119.32,30.64,103.5a4.76,4.76,0,0,1,3.61-.2l27.33,11.18a4,4,0,0,0,3.46-.43L92.72,93.53a4.62,4.62,0,0,1,3.53-.65l27.05,7.54a4,4,0,0,0,3.4-.82L154.64,74c.81-.74,2.2-1.88,3.09-2.53L187,50"/><rect class="cls-3" x="31.38" y="16.96" width="0.96" height="125.54"/><rect class="cls-3" x="62.39" y="16.96" width="0.96" height="125.54"/><rect class="cls-3" x="93.29" y="16.96" width="0.96" height="125.54"/><rect class="cls-3" x="124.23" y="16.96" width="0.96" height="125.54"/><rect class="cls-3" x="155.64" y="16.96" width="0.96" height="125.54"/><path class="cls-2" d="M181.68,143.12H5.82A4.84,4.84,0,0,1,1,138.3V21.78A4.84,4.84,0,0,1,5.82,17H181.68a4.84,4.84,0,0,1,4.83,4.82V138.3A4.84,4.84,0,0,1,181.68,143.12Z"/><circle class="cls-4" cx="31.86" cy="102.73" r="3.38"/><circle class="cls-4" cx="62.87" cy="114.02" r="3.38"/><circle class="cls-4" cx="93.75" cy="92.52" r="3.38"/><circle class="cls-4" cx="124.71" cy="100.34" r="3.38"/><circle class="cls-4" cx="156.13" cy="72.85" r="3.38"/><path class="cls-5" d="M48.57,1A36.67,36.67,0,1,0,85.24,37.67,36.66,36.66,0,0,0,48.57,1Zm0,49A12.29,12.29,0,1,1,60.86,37.67,12.28,12.28,0,0,1,48.57,50Z"/><path class="cls-2" d="M48.57,1A36.67,36.67,0,1,0,85.24,37.67,36.66,36.66,0,0,0,48.57,1Zm0,49A12.29,12.29,0,1,1,60.86,37.67,12.28,12.28,0,0,1,48.57,50Z"/><line class="cls-4" x1="48.57" y1="25.38" x2="48.57" y2="1"/><line class="cls-4" x1="57.95" y1="45.6" x2="76.74" y2="61.14"/><line class="cls-4" x1="39.2" y1="45.6" x2="20.09" y2="60.75"/><line class="cls-4" x1="37.94" y1="31.52" x2="17.72" y2="17.85"/></g></g></svg>