<svg xmlns="http://www.w3.org/2000/svg" viewBox="0 0 132.14 98.96"><defs><style>.cls-1{fill:#36c;}.cls-2,.cls-3{fill:none;}.cls-2{stroke:#fff;}.cls-2,.cls-3,.cls-4{stroke-miterlimit:10;}.cls-3,.cls-4{stroke:#36c;stroke-width:2px;}.cls-4{fill:#fff;}</style></defs><title>ico_onestop</title><g id="レイヤー_2" data-name="レイヤー 2"><g id="デザイン_PC_" data-name="デザイン（PC）"><path class="cls-1" d="M120.73,46.71c-.7.27-1.41.52-2.13.73v40h2.13Z"/><path class="cls-1" d="M17.53,83.27h95V48.53c-.56,0-1.13,0-1.7,0h-.43V81.15H19.66V29.64h65c-.22-.69-.42-1.4-.6-2.12H17.53Z"/><path class="cls-1" d="M11.41,24.17a2.89,2.89,0,0,1,2.91-2.78h69v-.27c0-.62,0-1.25.07-1.86H14.3a5,5,0,0,0-5,4.94V87.4h2.13Z"/><path class="cls-1" d="M0,89.4A9.55,9.55,0,0,0,9.31,99H120.69A9.56,9.56,0,0,0,130,89.4v-.82H0Zm72.26,1.31H128l-.57,1.38a7.8,7.8,0,0,1-6.74,4.74H72.26Zm-14.51,0v6.12H9.25a7.78,7.78,0,0,1-6.68-4.74L2,90.71Z"/><circle class="cls-2" cx="110.06" cy="21.99" r="12.12"/><ellipse class="cls-2" cx="110.06" cy="21.99" rx="6.2" ry="12.12"/><line class="cls-2" x1="97.94" y1="21.99" x2="122.17" y2="21.99"/><path class="cls-2" d="M99.57,15.94a34,34,0,0,0,21,0"/><path class="cls-2" d="M99.57,28.05a34,34,0,0,1,21,0"/><line class="cls-2" x1="110.06" y1="9.88" x2="110.06" y2="34.11"/><circle class="cls-3" cx="110.06" cy="21.99" r="12.12"/><ellipse class="cls-3" cx="110.06" cy="21.99" rx="6.2" ry="12.12"/><line class="cls-3" x1="97.94" y1="21.99" x2="122.17" y2="21.99"/><path class="cls-3" d="M99.57,15.94a34,34,0,0,0,21,0"/><path class="cls-3" d="M99.57,15.94a34,34,0,0,0,21,0"/><path class="cls-3" d="M99.57,28.05a34,34,0,0,1,21,0"/><path class="cls-3" d="M99.57,28.05a34,34,0,0,1,21,0"/><line class="cls-3" x1="110.06" y1="9.88" x2="110.06" y2="34.11"/><rect class="cls-4" x="27.5" y="37.7" width="49.9" height="20.5"/><line class="cls-3" x1="26.54" y1="63.29" x2="78.32" y2="63.29"/><line class="cls-3" x1="26.54" y1="68.37" x2="78.32" y2="68.37"/><line class="cls-3" x1="26.54" y1="73.46" x2="70.43" y2="73.46"/><line class="cls-3" x1="87.75" y1="48.02" x2="101.22" y2="48.02"/><line class="cls-3" x1="87.75" y1="53.11" x2="101.22" y2="53.11"/><line class="cls-3" x1="87.75" y1="58.2" x2="101.22" y2="58.2"/><line class="cls-3" x1="87.75" y1="63.29" x2="101.22" y2="63.29"/><line class="cls-3" x1="87.75" y1="68.37" x2="101.22" y2="68.37"/><line class="cls-3" x1="87.75" y1="73.46" x2="101.22" y2="73.46"/><path class="cls-1" d="M99.69,39.09l5.75-2.61-.7,2.13,1,.27a17.33,17.33,0,1,0-13-16.8,17.27,17.27,0,0,0,1.15,6.21l-4.16,2.39A21.88,21.88,0,0,1,88,22.08a22.09,22.09,0,1,1,22.09,22.09,22.37,22.37,0,0,1-5.89-.81l-.92-.26-.49,1.5Z"/></g></g></svg>