<svg xmlns="http://www.w3.org/2000/svg" viewBox="0 0 380.45 8"><defs><style>.cls-1{fill:#454e56;}</style></defs><title>line_wave</title><g id="レイヤー_2" data-name="レイヤー 2"><g id="デザイン_PC_" data-name="デザイン（PC）"><path class="cls-1" d="M369.87,8c-3.1,0-4.66-1.77-6-3.34S361.48,2,359.29,2,356,3.23,354.75,4.66,351.81,8,348.72,8s-4.66-1.77-6-3.34S340.34,2,338.15,2s-3.28,1.23-4.54,2.66S330.67,8,327.58,8s-4.66-1.77-6-3.34S319.2,2,317,2s-3.28,1.23-4.54,2.66S309.54,8,306.44,8s-4.66-1.77-6-3.34S298.06,2,295.87,2s-3.28,1.23-4.53,2.66S288.4,8,285.3,8s-4.65-1.77-6-3.34S276.92,2,274.73,2s-3.27,1.23-4.53,2.66S267.26,8,264.16,8s-4.65-1.77-6-3.34S255.79,2,253.59,2s-3.27,1.23-4.53,2.66S246.12,8,243,8s-4.66-1.77-6-3.34S234.65,2,232.46,2s-3.28,1.23-4.53,2.66S225,8,221.89,8s-4.65-1.77-6-3.34S213.52,2,211.33,2s-3.28,1.23-4.54,2.66S203.85,8,200.76,8s-4.66-1.77-6-3.34S192.38,2,190.19,2s-3.27,1.23-4.53,2.66S182.72,8,179.63,8s-4.65-1.77-6-3.34S171.26,2,169.07,2s-3.28,1.23-4.54,2.66S161.59,8,158.5,8s-4.66-1.77-6-3.34S150.12,2,147.93,2s-3.27,1.23-4.53,2.66S140.46,8,137.36,8s-4.65-1.77-6-3.34S129,2,126.8,2s-3.28,1.23-4.54,2.66S119.32,8,116.23,8s-4.66-1.77-6-3.34S107.85,2,105.66,2s-3.27,1.23-4.53,2.66S98.19,8,95.1,8s-4.66-1.77-6-3.34S86.72,2,84.53,2,81.25,3.23,80,4.66,77.06,8,74,8s-4.65-1.77-6-3.34S65.58,2,63.39,2s-3.27,1.23-4.53,2.66S55.92,8,52.83,8s-4.66-1.77-6-3.34S44.45,2,42.26,2,39,3.23,37.73,4.66,34.79,8,31.7,8s-4.66-1.77-6-3.34S23.32,2,21.13,2,17.86,3.23,16.6,4.66,13.66,8,10.56,8s-4.65-1.77-6-3.34S2.19,2,0,2V0C3.09,0,4.66,1.77,6,3.34S8.38,6,10.56,6s3.28-1.23,4.54-2.66S18,0,21.13,0s4.66,1.77,6,3.34S29.51,6,31.7,6,35,4.77,36.23,3.34,39.17,0,42.26,0s4.66,1.77,6,3.34S50.64,6,52.83,6s3.27-1.23,4.53-2.66S60.3,0,63.39,0s4.66,1.77,6,3.34S71.77,6,74,6s3.28-1.23,4.54-2.66S81.44,0,84.53,0s4.65,1.77,6,3.34S92.91,6,95.1,6s3.27-1.23,4.53-2.66,2.94-3.34,6-3.34,4.66,1.77,6,3.34S114,6,116.23,6s3.28-1.23,4.53-2.66S123.7,0,126.8,0s4.65,1.77,6,3.34S135.17,6,137.36,6s3.28-1.23,4.54-2.66,2.94-3.34,6-3.34,4.66,1.77,6,3.34S156.31,6,158.5,6s3.28-1.23,4.53-2.66S166,0,169.07,0s4.65,1.77,6,3.34S177.44,6,179.63,6s3.27-1.23,4.53-2.66S187.1,0,190.19,0s4.66,1.77,6,3.34S198.57,6,200.76,6s3.27-1.23,4.53-2.66,2.94-3.34,6-3.34,4.65,1.77,6,3.34S219.7,6,221.89,6s3.28-1.23,4.53-2.66,2.94-3.34,6-3.34,4.66,1.77,6,3.34S240.84,6,243,6s3.27-1.23,4.53-2.66S250.5,0,253.59,0s4.66,1.77,6,3.34S262,6,264.16,6s3.28-1.23,4.54-2.66,2.94-3.34,6-3.34,4.66,1.77,6,3.34S283.11,6,285.3,6s3.28-1.23,4.54-2.66,2.94-3.34,6-3.34,4.66,1.77,6,3.34S304.25,6,306.44,6s3.28-1.23,4.53-2.66S313.92,0,317,0s4.65,1.77,6,3.34S325.39,6,327.58,6s3.27-1.23,4.53-2.66,2.94-3.34,6-3.34,4.65,1.77,6,3.34S346.53,6,348.72,6s3.28-1.23,4.53-2.66S356.2,0,359.29,0s4.66,1.77,6,3.34S367.67,6,369.87,6s3.28-1.23,4.54-2.66,2.94-3.34,6-3.34V2c-2.2,0-3.28,1.23-4.54,2.66S373,8,369.87,8Z"/></g></g></svg>