<svg xmlns="http://www.w3.org/2000/svg" xmlns:xlink="http://www.w3.org/1999/xlink" viewBox="0 0 195.61 49.41"><defs><style>.cls-1{fill:#322a29;}.cls-2{fill:url(#名称未設定グラデーション_118);}</style><linearGradient id="名称未設定グラデーション_118" x1="46.3" y1="3.91" x2="46.3" y2="43.19" gradientUnits="userSpaceOnUse"><stop offset="0" stop-color="#1dade5"/><stop offset="1" stop-color="#004da0"/></linearGradient></defs><title>logo_dm</title><g id="レイヤー_2" data-name="レイヤー 2"><g id="デザイン_PC_" data-name="デザイン（PC）"><path class="cls-1" d="M89.29,2.64c5.46,0,9.27,3.6,9.27,8.67,0,5.26-3.81,8.93-9.27,8.93H83.18V2.64Zm0,15.92a7,7,0,0,0,7.38-7.25c0-4.06-3.06-7-7.38-7H85V18.56Z"/><path class="cls-1" d="M102.36,3.76a1.19,1.19,0,0,1,1.21-1.2,1.21,1.21,0,0,1,1.25,1.2A1.19,1.19,0,0,1,103.57,5,1.18,1.18,0,0,1,102.36,3.76Zm2.09,16.48h-1.76v-12h1.76Z"/><path class="cls-1" d="M111,10.35A5.68,5.68,0,0,1,115.63,8V9.66A5.51,5.51,0,0,0,111,12.42v7.82h-1.76v-12H111Z"/><path class="cls-1" d="M129.86,15l-.1-.05V15H119.64a4.38,4.38,0,0,0,4.48,4.09,3.64,3.64,0,0,0,3.47-1.84h1.91c-.7,2.05-2.79,3.37-5.43,3.37a6.09,6.09,0,0,1-6.21-6.32A6.09,6.09,0,0,1,124.07,8c3.41,0,5.79,2.64,5.82,6.24A6,6,0,0,1,129.86,15Zm-10.22-1.37h8.46c-.2-2.41-1.73-4.09-4.08-4.09A4.35,4.35,0,0,0,119.64,13.59Z"/><path class="cls-1" d="M143,16.25h1.84a5.47,5.47,0,0,1-5.62,4.33A6.14,6.14,0,0,1,133,14.26,6.13,6.13,0,0,1,139.23,8a5.47,5.47,0,0,1,5.62,4.33H143a3.64,3.64,0,0,0-3.78-2.7,4.42,4.42,0,0,0-4.45,4.66A4.43,4.43,0,0,0,139.23,19,3.64,3.64,0,0,0,143,16.25Z"/><path class="cls-1" d="M156.39,20.21a8.81,8.81,0,0,1-2.59.42c-2.75,0-4.14-1.58-4.14-4.69V9.81h-3.19V8.28h3.19V3.86h1.76V8.28H156V9.81h-4.53v6.13c0,2.18.85,3.06,2.66,3.06a8.06,8.06,0,0,0,2-.31Z"/><path class="cls-1" d="M100.19,43.12H98.35l0-13.56L92.32,39.65H91.08L85,29.48l0,13.64H83.18V25.52h1.43L91.7,37.43l7.09-11.91h1.4Z"/><path class="cls-1" d="M116.49,43.12h-1.76V41.8a6.08,6.08,0,0,1-4.32,1.66,6.3,6.3,0,0,1,0-12.6,6.11,6.11,0,0,1,4.32,1.65V31.17h1.76Zm-1.76-3.39V34.58a4.84,4.84,0,0,0-4.09-2.17,4.75,4.75,0,0,0,0,9.5A4.85,4.85,0,0,0,114.73,39.73Z"/><path class="cls-1" d="M128.67,43.1a8.65,8.65,0,0,1-2.58.41c-2.75,0-4.15-1.58-4.15-4.68V32.69h-3.18V31.17h3.18V26.74h1.76v4.43h4.53v1.52H123.7v6.14c0,2.17.86,3.05,2.67,3.05a8.06,8.06,0,0,0,2-.31Z"/><path class="cls-1" d="M141.38,39.14h1.84a5.47,5.47,0,0,1-5.62,4.32,6.3,6.3,0,0,1,0-12.6,5.47,5.47,0,0,1,5.62,4.32h-1.84a3.63,3.63,0,0,0-3.78-2.69,4.42,4.42,0,0,0-4.45,4.66,4.43,4.43,0,0,0,4.45,4.68A3.63,3.63,0,0,0,141.38,39.14Z"/><path class="cls-1" d="M158.22,36.24v6.88h-1.76v-6.8c0-2.49-1.47-3.91-3.65-3.91a5.19,5.19,0,0,0-4.11,2.22v8.49h-1.76V24.75h1.76v7.84a6.1,6.1,0,0,1,4.42-1.81C156.13,30.78,158.22,32.87,158.22,36.24Z"/><path class="cls-1" d="M162.1,26.64a1.23,1.23,0,0,1,2.46,0,1.23,1.23,0,0,1-2.46,0Zm2.1,16.48h-1.76V31.17h1.76Z"/><path class="cls-1" d="M180.22,36.24v6.88h-1.76v-6.8c0-2.49-1.48-3.91-3.65-3.91a5.2,5.2,0,0,0-4.12,2.22v8.49h-1.76V31.17h1.76v1.42a6.12,6.12,0,0,1,4.43-1.81C178.12,30.78,180.22,32.87,180.22,36.24Z"/><path class="cls-1" d="M195.61,43.51a5.58,5.58,0,0,1-6,5.9c-3.13,0-5.48-1.84-5.9-4.45h1.81c.36,1.68,1.92,2.82,4.09,2.82a4,4,0,0,0,4.17-4.27h0v-2.1a6.44,6.44,0,0,1-4.5,1.71,6.19,6.19,0,0,1,0-12.37,6.49,6.49,0,0,1,4.5,1.71V31.17h1.76Zm-1.76-4.19V34.56a5,5,0,0,0-4.27-2.25,4.63,4.63,0,0,0,0,9.26A5,5,0,0,0,193.85,39.32Z"/><path class="cls-2" d="M59.22,0A16.65,16.65,0,0,0,46.3,6.15,16.66,16.66,0,0,0,16.72,16.67V43.1h7.49V16.67a9.18,9.18,0,0,1,18.35,0V43.1h7.49V16.67a9.17,9.17,0,0,1,18.34,0V43.1h7.5V16.67A16.69,16.69,0,0,0,59.22,0Z"/><path class="cls-1" d="M18.13,0H0V43.1H14V35.61H7.5V7.5H18.13a14,14,0,0,1,8.83,25v8.73A21.54,21.54,0,0,0,39.68,21.55h0A21.55,21.55,0,0,0,18.13,0Z"/></g></g></svg>