<svg xmlns="http://www.w3.org/2000/svg" viewBox="0 0 100.73 18.6"><defs><style>.cls-1{fill:#fff;}.cls-2{fill:#f6aa00;}</style></defs><title>logo_idv_primary</title><g id="レイヤー_2" data-name="レイヤー 2"><g id="デザイン_PC_" data-name="デザイン（PC）"><path class="cls-1" d="M76.32,18.59h2.05a1.43,1.43,0,0,0,1.29-1l2-7.32,2,7.32a1.42,1.42,0,0,0,1.29,1h2a.77.77,0,0,0,.76-1L84.34,5.73a1.39,1.39,0,0,0-1.28-1H80.32a1.42,1.42,0,0,0-1.29,1L75.57,17.57A.76.76,0,0,0,76.32,18.59Z"/><path class="cls-1" d="M93.42,1a1,1,0,0,1,1-1h2a1,1,0,0,1,1,1V12.46h0a2,2,0,0,0,2,2h.16a1,1,0,0,1,1,1v2a1,1,0,0,1-1,1h-.16a6.12,6.12,0,0,1-6.13-6.13h0Z"/><path class="cls-1" d="M16.67,4.68a6.13,6.13,0,0,0-6.13,6.13v6.76a1,1,0,0,0,1,1h2a1,1,0,0,0,1-1V10.81a2,2,0,0,1,4.09,0h0v6.76a1,1,0,0,0,1,1h2a1,1,0,0,0,1-1V10.81A6.13,6.13,0,0,0,16.67,4.68Z"/><path class="cls-1" d="M39.49.09h-2a1,1,0,0,0-1,1V5.06a6.13,6.13,0,0,0-8.17,5.78v1.62a6.13,6.13,0,0,0,6.13,6.14,5,5,0,0,0,1.94-.44c.26-.11.46.43,1.16.43h1.61a1.29,1.29,0,0,0,1.42-1.38V1.11A1,1,0,0,0,39.49.09ZM36.42,12.46a2,2,0,1,1-4.08,0h0V10.84a2,2,0,0,1,4.08,0h0Z"/><path class="cls-1" d="M70,4.71H68a1.42,1.42,0,0,0-1.29,1l-2,7.32-2-7.32a1.43,1.43,0,0,0-1.29-1h-2a.76.76,0,0,0-.76,1L62,17.57a1.43,1.43,0,0,0,1.29,1H66a1.41,1.41,0,0,0,1.28-1L70.76,5.73A.77.77,0,0,0,70,4.71Z"/><rect class="cls-1" x="47.82" y="5.19" width="4.09" height="13.4" rx="1.02" ry="1.02"/><path class="cls-1" d="M49.86,4.1a2,2,0,1,0-2-2A2,2,0,0,0,49.86,4.1Z"/><rect class="cls-1" width="4.09" height="18.59" rx="1.02" ry="1.02"/><path class="cls-2" d="M76.32,18.59h2.05a1.43,1.43,0,0,0,1.29-1l2-7.32,2,7.32a1.42,1.42,0,0,0,1.29,1h2a.77.77,0,0,0,.76-1L84.34,5.73a1.39,1.39,0,0,0-1.28-1H80.32a1.42,1.42,0,0,0-1.29,1L75.57,17.57A.76.76,0,0,0,76.32,18.59Z"/><path class="cls-2" d="M93.42,1a1,1,0,0,1,1-1h2a1,1,0,0,1,1,1V12.46h0a2,2,0,0,0,2,2h.16a1,1,0,0,1,1,1v2a1,1,0,0,1-1,1h-.16a6.12,6.12,0,0,1-6.13-6.13h0Z"/><path class="cls-2" d="M16.67,4.68a6.13,6.13,0,0,0-6.13,6.13v6.76a1,1,0,0,0,1,1h2a1,1,0,0,0,1-1V10.81a2,2,0,0,1,4.09,0h0v6.76a1,1,0,0,0,1,1h2a1,1,0,0,0,1-1V10.81A6.13,6.13,0,0,0,16.67,4.68Z"/><path class="cls-2" d="M39.49.09h-2a1,1,0,0,0-1,1V5.06a6.13,6.13,0,0,0-8.17,5.78v1.62a6.13,6.13,0,0,0,6.13,6.14,5,5,0,0,0,1.94-.44c.26-.11.46.43,1.16.43h1.61a1.29,1.29,0,0,0,1.42-1.38V1.11A1,1,0,0,0,39.49.09ZM36.42,12.46a2,2,0,1,1-4.08,0h0V10.84a2,2,0,0,1,4.08,0h0Z"/><path class="cls-2" d="M70,4.71H68a1.42,1.42,0,0,0-1.29,1l-2,7.32-2-7.32a1.43,1.43,0,0,0-1.29-1h-2a.76.76,0,0,0-.76,1L62,17.57a1.43,1.43,0,0,0,1.29,1H66a1.41,1.41,0,0,0,1.28-1L70.76,5.73A.77.77,0,0,0,70,4.71Z"/><rect class="cls-2" x="47.82" y="5.19" width="4.09" height="13.4" rx="1.02" ry="1.02"/><path class="cls-2" d="M49.86,4.1a2,2,0,1,0-2-2A2,2,0,0,0,49.86,4.1Z"/><rect class="cls-2" width="4.09" height="18.59" rx="1.02" ry="1.02"/></g></g></svg>