<svg xmlns="http://www.w3.org/2000/svg" viewBox="0 0 265.3 31.33"><defs><style>.cls-1{fill:#505050;}.cls-2{fill:#098a97;}.cls-3{fill:#42bbc5;}.cls-4{fill:#d84114;}</style></defs><title>logo_sft</title><g id="レイヤー_2" data-name="レイヤー 2"><g id="デザイン_PC_" data-name="デザイン（PC）"><rect class="cls-1" x="118.22" width="5.91" height="30.48"/><path class="cls-1" d="M229,19.89Q223,29.64,208.58,30.53V25.24q16.8-1.72,18.5-18.2H214.76a19.2,19.2,0,0,1-4.34,6.53,16.74,16.74,0,0,1-6.6,4.15V11.94a15.27,15.27,0,0,0,6.6-10.26h22.81Q233.23,13.14,229,19.89Z"/><path class="cls-1" d="M79.61,5.6q-.92,13-8.73,19Q63.8,30,50.42,30.11V24.34Q61.69,24.06,66.89,20q5.49-4.34,6.45-14.38Z"/><rect class="cls-1" x="49.66" y="1.68" width="15.35" height="5.06"/><rect class="cls-1" x="49.66" y="10.23" width="15.35" height="5.06"/><path class="cls-1" d="M125.23,9.86v5.72q10.24,2,17.93,4V13.7Q136.76,12,125.23,9.86Z"/><rect class="cls-1" x="83.66" y="1.68" width="27.73" height="5.22"/><path class="cls-1" d="M260.55,7.08a33.86,33.86,0,0,0,.75-5.42H238.07V7.08Z"/><path class="cls-1" d="M257.17,15.64a29.42,29.42,0,0,0,3.08-7.36h-6.17a24,24,0,0,1-6.77,10.44,26.17,26.17,0,0,1-10.94,6.11V30.4a30.92,30.92,0,0,0,17-9.65,20.88,20.88,0,0,0,11.92,10V24.61A17.08,17.08,0,0,1,257.17,15.64Z"/><path class="cls-1" d="M155,1.72V7.08h15.49q-.42,15.29-14.69,18.06V30.5q9.9-1.32,15.14-7.49,5.54-6.5,5.53-18.1V1.72Z"/><rect class="cls-1" x="148.18" y="1.72" width="5.61" height="14.55"/><path class="cls-1" d="M110.26,8.1h-5a18.05,18.05,0,0,1-3.85,9.35C98,21.54,94.53,24,85.55,24.35v6l1,0c8.32,0,14.77-2.67,19.19-7.93A25.54,25.54,0,0,0,111.39,8.1Z"/><path class="cls-1" d="M179.27,12.14a27,27,0,0,1-.84,3.52h21.81V12.14Z"/><rect class="cls-1" x="118.22" width="5.91" height="30.48"/><path class="cls-1" d="M229,19.89Q223,29.64,208.58,30.53V25.24q16.8-1.72,18.5-18.2H214.76a19.2,19.2,0,0,1-4.34,6.53,16.74,16.74,0,0,1-6.6,4.15V11.94a15.27,15.27,0,0,0,6.6-10.26h22.81Q233.23,13.14,229,19.89Z"/><path class="cls-1" d="M79.61,5.6q-.92,13-8.73,19Q63.8,30,50.42,30.11V24.34Q61.69,24.06,66.89,20q5.49-4.34,6.45-14.38Z"/><rect class="cls-1" x="49.66" y="1.68" width="15.35" height="5.06"/><rect class="cls-1" x="49.66" y="10.23" width="15.35" height="5.06"/><rect class="cls-1" x="83.66" y="1.68" width="27.73" height="5.22"/><path class="cls-1" d="M260.55,7.08a33.86,33.86,0,0,0,.75-5.42H238.07V7.08Z"/><rect class="cls-1" x="148.18" y="1.72" width="5.61" height="14.55"/><path class="cls-1" d="M179.27,12.14c-.21,1.23-1.33,4.6-1.67,5.71h22.64V12.14Z"/><path class="cls-1" d="M105.28,8.41a18.08,18.08,0,0,1-3.82,9C98,21.54,94.53,24,85.55,24.35v6l1,0c8.32,0,14.77-2.67,19.19-7.93a25.52,25.52,0,0,0,5.62-14Z"/><path class="cls-1" d="M257.17,15.64a29.23,29.23,0,0,0,3-7H254a24,24,0,0,1-6.66,10.13,26.17,26.17,0,0,1-10.94,6.11V30.4a30.92,30.92,0,0,0,17-9.65,20.88,20.88,0,0,0,11.92,10V24.61A17.08,17.08,0,0,1,257.17,15.64Z"/><path class="cls-1" d="M155.17,1.72V7.08h15.3q-.42,15.29-14.69,18.06V30.5q9.9-1.32,15.14-7.49,5.54-6.5,5.53-18.1V1.72Z"/><path class="cls-1" d="M125.51,9.91v5.73q10.06,2,17.65,3.91V13.7Q136.84,12,125.51,9.91Z"/><rect class="cls-2" y="0.72" width="37.4" height="3.39"/><rect class="cls-2" y="5.25" width="37.4" height="3.39"/><polygon class="cls-2" points="24.06 9.79 0 9.79 0 13.18 27.45 13.18 24.06 9.79"/><polygon class="cls-2" points="28.19 14.33 6.82 14.33 6.82 17.71 31.58 17.71 28.19 14.33"/><polygon class="cls-2" points="32.73 18.86 13.13 18.86 13.13 22.25 36.12 22.25 32.73 18.86"/><rect class="cls-2" y="23.4" width="37.4" height="3.39"/><rect class="cls-2" x="4.51" y="27.94" width="32.89" height="3.39"/><polygon class="cls-3" points="17.97 4.1 37.4 4.1 37.4 0.72 14.58 0.72 17.97 4.1"/><polygon class="cls-3" points="22.5 8.64 37.4 8.64 37.4 5.25 19.12 5.25 22.5 8.64"/><rect class="cls-4" y="27.94" width="3.39" height="3.39"/></g></g></svg>