<svg xmlns="http://www.w3.org/2000/svg" viewBox="0 0 166.31 45.96"><defs><style>.cls-1{fill:#195ff6;}</style></defs><title>logo_indeed</title><g id="レイヤー_2" data-name="レイヤー 2"><g id="デザイン_PC_" data-name="デザイン（PC）"><path class="cls-1" d="M158.42,36.92A6.57,6.57,0,0,1,156,39.76a6.31,6.31,0,0,1-3.35.93h0a6.17,6.17,0,0,1-3.35-1,6.7,6.7,0,0,1-2.41-2.92,11.33,11.33,0,0,1-.89-4.72,11.43,11.43,0,0,1,.84-4.59,6.72,6.72,0,0,1,2.33-3,5.67,5.67,0,0,1,3.43-1.06h.07a5.86,5.86,0,0,1,3.32,1,7.15,7.15,0,0,1,2.44,3,11,11,0,0,1,.9,4.68,11.28,11.28,0,0,1-.9,4.84m7-27.76a3.08,3.08,0,0,0-2.44-1,2.89,2.89,0,0,0-2.44,1.09,4.93,4.93,0,0,0-.86,3.15V22.46a14.34,14.34,0,0,0-4-3.11,10.21,10.21,0,0,0-3-.88,15.17,15.17,0,0,0-2.08-.13,10.76,10.76,0,0,0-8.4,3.57q-3.19,3.57-3.19,10a18.74,18.74,0,0,0,.81,5.61,13.58,13.58,0,0,0,2.35,4.5,11,11,0,0,0,3.71,3,10.58,10.58,0,0,0,4.63,1,10.74,10.74,0,0,0,2.17-.2,8.32,8.32,0,0,0,1.31-.31,11.15,11.15,0,0,0,3-1.5,17.46,17.46,0,0,0,2.78-2.56v.67a4.24,4.24,0,0,0,.92,2.89A3.19,3.19,0,0,0,163,46a3.13,3.13,0,0,0,2.37-1,4.17,4.17,0,0,0,.93-2.93v-30a4.37,4.37,0,0,0-.86-2.89"/><path class="cls-1" d="M120.58,24.73A5.62,5.62,0,0,1,124.84,23h0a5.86,5.86,0,0,1,4.38,1.72,8.11,8.11,0,0,1,1.92,5.23H118.54a8.53,8.53,0,0,1,2-5.21M136.84,37.2a2.57,2.57,0,0,0-1.74-.57,2.34,2.34,0,0,0-1.51.44c-.88.79-1.58,1.43-2.13,1.9a20.39,20.39,0,0,1-1.8,1.3,7.17,7.17,0,0,1-2,.88,8.23,8.23,0,0,1-2.28.29,2.91,2.91,0,0,1-.52,0,6.22,6.22,0,0,1-2.89-.88,6.5,6.5,0,0,1-2.49-2.62,9.28,9.28,0,0,1-.95-4.1h13.63a9.88,9.88,0,0,0,4.25-.76c1-.53,1.51-1.63,1.51-3.33a11.33,11.33,0,0,0-1.47-5.45,11.21,11.21,0,0,0-4.38-4.34,13.73,13.73,0,0,0-7-1.68h-.2a16.13,16.13,0,0,0-5.52,1A12.3,12.3,0,0,0,115,22a12.71,12.71,0,0,0-2.66,4.44,16.66,16.66,0,0,0-.93,5.6c0,4.28,1.25,7.64,3.73,10.13s5.6,3.6,9.74,3.73c.22,0,.47,0,.72,0a16.36,16.36,0,0,0,5.2-.75,13.53,13.53,0,0,0,3.75-1.87A9.09,9.09,0,0,0,136.77,41a4.28,4.28,0,0,0,.75-2.14,2,2,0,0,0-.68-1.61"/><path class="cls-1" d="M92.67,24.73A5.64,5.64,0,0,1,96.94,23h0a5.87,5.87,0,0,1,4.39,1.72,8.11,8.11,0,0,1,1.94,5.23H90.64a8.78,8.78,0,0,1,2-5.21m14.55,11.9a2.35,2.35,0,0,0-1.53.44c-.86.79-1.58,1.43-2.13,1.9a20,20,0,0,1-1.78,1.3,7.41,7.41,0,0,1-2,.88,8.15,8.15,0,0,1-2.29.29,2.91,2.91,0,0,1-.52,0,6.22,6.22,0,0,1-2.89-.88,6.5,6.5,0,0,1-2.46-2.62,8.89,8.89,0,0,1-1-4.1h13.64a10,10,0,0,0,4.25-.76c1-.53,1.49-1.63,1.49-3.33a11.23,11.23,0,0,0-5.82-9.79,13.78,13.78,0,0,0-7-1.68H97a16.16,16.16,0,0,0-5.51,1A12,12,0,0,0,87.11,22a12.48,12.48,0,0,0-2.69,4.44,16.65,16.65,0,0,0-.92,5.6c0,4.28,1.26,7.64,3.75,10.13s5.58,3.6,9.71,3.73c.25,0,.48,0,.73,0a16.17,16.17,0,0,0,5.19-.75,13.26,13.26,0,0,0,3.75-1.87A8.82,8.82,0,0,0,108.87,41a4.28,4.28,0,0,0,.75-2.14A2.06,2.06,0,0,0,109,37.2a2.68,2.68,0,0,0-1.74-.57"/><path class="cls-1" d="M14.52,41.44V25.2c.47,0,.92.06,1.4.06a12.21,12.21,0,0,0,6.19-1.65V41.44a4.89,4.89,0,0,1-1.06,3.4A3.61,3.61,0,0,1,18.29,46a3.48,3.48,0,0,1-2.71-1.15,4.78,4.78,0,0,1-1.06-3.37"/><path class="cls-1" d="M73.15,36.92a6.49,6.49,0,0,1-2.44,2.84,6.23,6.23,0,0,1-3.32.93h0a6.17,6.17,0,0,1-3.34-1A6.59,6.59,0,0,1,61.6,36.8a11.49,11.49,0,0,1-.88-4.72,12.18,12.18,0,0,1,.81-4.59,6.89,6.89,0,0,1,2.35-3,5.64,5.64,0,0,1,3.42-1.06h.09a5.72,5.72,0,0,1,3.29,1,7.06,7.06,0,0,1,2.47,3,11.49,11.49,0,0,1,.9,4.68,11.74,11.74,0,0,1-.9,4.84m7-27.76a3.09,3.09,0,0,0-2.42-1,2.91,2.91,0,0,0-2.44,1.09,4.87,4.87,0,0,0-.85,3.15V22.46a14.37,14.37,0,0,0-4-3.11,10.23,10.23,0,0,0-3-.88,15.28,15.28,0,0,0-2.08-.13,10.77,10.77,0,0,0-8.41,3.57q-3.18,3.57-3.18,10a19.4,19.4,0,0,0,.79,5.61A13.43,13.43,0,0,0,56.88,42a11,11,0,0,0,3.71,3,10.54,10.54,0,0,0,4.63,1,11.09,11.09,0,0,0,2.17-.2,8.32,8.32,0,0,0,1.31-.31,11.3,11.3,0,0,0,3-1.5,18.36,18.36,0,0,0,2.78-2.56v.67A4.19,4.19,0,0,0,75.36,45a3.14,3.14,0,0,0,2.37,1,3.19,3.19,0,0,0,2.36-1,4.16,4.16,0,0,0,.9-2.93v-30a4.32,4.32,0,0,0-.84-2.89"/><path class="cls-1" d="M33.25,22v.84a12.31,12.31,0,0,1,4-3.48,11.16,11.16,0,0,1,5-1.11,10.31,10.31,0,0,1,4.92,1.17,7.43,7.43,0,0,1,3.23,3.31,7.61,7.61,0,0,1,.91,2.72,27.94,27.94,0,0,1,.2,3.68V41.81a4.43,4.43,0,0,1-1,3.09A3.18,3.18,0,0,1,48.11,46a3.24,3.24,0,0,1-2.53-1.08,4.4,4.4,0,0,1-1-3.07V30.49a11.14,11.14,0,0,0-1-5.16c-.63-1.19-1.92-1.79-3.82-1.79a5.89,5.89,0,0,0-3.39,1.08,6.37,6.37,0,0,0-2.26,3,21.53,21.53,0,0,0-.49,5.7v8.49a4.4,4.4,0,0,1-1,3.12,3.34,3.34,0,0,1-2.53,1,3.15,3.15,0,0,1-2.48-1.08,4.36,4.36,0,0,1-1-3.07V22.15a4.08,4.08,0,0,1,.89-2.89,3,3,0,0,1,2.37-1,3.19,3.19,0,0,1,1.65.42A3.1,3.1,0,0,1,32.82,20,4.49,4.49,0,0,1,33.25,22"/><path class="cls-1" d="M14.56,2.52C19.26.86,24.61,1,28.64,4.35a6.66,6.66,0,0,1,1.94,2.56c.41,1.28-1.42-.14-1.67-.31a17.73,17.73,0,0,0-4.09-2c-7.91-2.38-15.39,1.92-20,8.6A35.89,35.89,0,0,0,.53,22.66a4.78,4.78,0,0,1-.41,1.19c-.2.38-.09-1-.09-1.06a27.56,27.56,0,0,1,.82-4.14C3,11.36,7.74,5.3,14.56,2.52"/><path class="cls-1" d="M20.68,20.59A5.77,5.77,0,0,1,13,18.14a5.52,5.52,0,0,1,2.51-7.53,5.77,5.77,0,0,1,7.7,2.45,5.52,5.52,0,0,1-2.51,7.53"/><path class="cls-1" d="M91.7,6.1a8.67,8.67,0,0,1-3.27,1.71,1,1,0,0,1-1-1c0-.55.24-.66,1.39-1.19a12.87,12.87,0,0,0,4.82-4.26c.41-.67.53-.85,1-.85a1,1,0,0,1,1.07.92c0,.76-1.5,2.44-2.11,3V10.2c0,.49-.35.77-1,.77s-1-.28-1-.77Z"/><path class="cls-1" d="M101.88,4.62a1.27,1.27,0,0,1-.83-.38c-.56-.45-1.11-.9-1.79-1.38a.77.77,0,0,1-.41-.68,1.09,1.09,0,0,1,1-1c.32,0,.57.12,1.33.67,1.31.93,1.69,1.32,1.69,1.73A1.16,1.16,0,0,1,101.88,4.62Zm6.73-.37a2.29,2.29,0,0,1-.5,1.06,13,13,0,0,1-8,5.33,1,1,0,0,1-1-1.08c0-.73.47-.86,1.23-1.07A11.53,11.53,0,0,0,104.91,6a9.57,9.57,0,0,0,1.74-2.15c.26-.42.48-.57.83-.57A1.15,1.15,0,0,1,108.61,4.25Z"/><path class="cls-1" d="M125.78,7.26a6.7,6.7,0,0,1-2.56,1.28.89.89,0,0,1-.83-.93.75.75,0,0,1,.48-.73l.68-.32a10.58,10.58,0,0,0,3.85-3.39c.34-.54.52-.69.87-.69a1,1,0,0,1,1,.84c0,.57-1,1.75-1.74,2.45v4.58c0,.45-.32.7-.87.7s-.88-.25-.88-.7Z"/><path class="cls-1" d="M133.34,6.6c-.48,0-.74-.33-.74-.92s.26-.94.74-.94h8.75c.48,0,.74.33.74.94s-.26.92-.74.92Z"/><path class="cls-1" d="M148.59,3.4a26.82,26.82,0,0,1,3,1.24c1,.5,1.16.7,1.16,1.18a1,1,0,0,1-.93,1.08,1.33,1.33,0,0,1-.65-.2,18.79,18.79,0,0,0-2.54-1.24v4.66c0,.5-.34.78-1,.78s-1-.28-1-.78V1.26c0-.5.34-.77,1-.77s1,.27,1,.77Zm2-2c.24,0,.37.12.79.71s.45.7.45.89a.65.65,0,0,1-.68.57c-.21,0-.33-.08-.48-.31s-.35-.52-.59-.84a.72.72,0,0,1-.19-.43A.67.67,0,0,1,150.63,1.37ZM152,.55c.23,0,.41.14.85.77.31.42.42.63.42.81a.66.66,0,0,1-.69.58.52.52,0,0,1-.45-.26,10.5,10.5,0,0,0-.62-.87.68.68,0,0,1-.2-.43A.68.68,0,0,1,152,.55Z"/><path class="cls-1" d="M112,2.79h5.27c.45,0,.7-.32.7-.88a1.36,1.36,0,0,0,0-.21.74.74,0,0,0-.4-.62h0a.63.63,0,0,0-.22-.05H112c-.44,0-.7.32-.7.89S111.55,2.79,112,2.79Z"/><path class="cls-1" d="M119.61,0a.59.59,0,0,0-.61.52c0,.14,0,.2.31.57a4.78,4.78,0,0,1,.32.5c.17.3.26.37.46.37a.59.59,0,0,0,.6-.56C120.69,1.17,120.07,0,119.61,0Z"/><path class="cls-1" d="M118.47.52a.58.58,0,0,0-.6.53c0,.13,0,.19.31.57a5.47,5.47,0,0,1,.31.5c.17.29.27.36.46.36a.58.58,0,0,0,.6-.56C119.55,1.7,118.94.52,118.47.52Z"/><path class="cls-1" d="M119.33,3.78H110.6c-.45,0-.7.32-.7.88s.25.88.7.88h3.75a3.81,3.81,0,0,1-2,3.53c-.48.28-.61.47-.61.84a1,1,0,0,0,1,1A3.85,3.85,0,0,0,115,9.25a6.46,6.46,0,0,0,1.21-3.71h3.09c.45,0,.7-.32.7-.88S119.78,3.78,119.33,3.78Z"/></g></g></svg>