<svg xmlns="http://www.w3.org/2000/svg" viewBox="0 0 150 93"><defs><style>.cls-1{fill:#f6aa00;}.cls-2{fill:#fff;}</style></defs><title>logo_idv</title><g id="レイヤー_2" data-name="レイヤー 2"><g id="デザイン_PC_" data-name="デザイン（PC）"><rect class="cls-1" width="150" height="93"/><path class="cls-2" d="M101,55.89h2a1.42,1.42,0,0,0,1.29-1l2-7.31,2,7.31a1.43,1.43,0,0,0,1.29,1h2a.77.77,0,0,0,.76-1L109,43a1.43,1.43,0,0,0-1.29-1H105a1.41,1.41,0,0,0-1.28,1L100.2,54.86A.77.77,0,0,0,101,55.89Z"/><path class="cls-2" d="M118.05,38.34a1,1,0,0,1,1-1h2a1,1,0,0,1,1,1V49.75h0a2,2,0,0,0,2,2h.16a1,1,0,0,1,1,1v2a1,1,0,0,1-1,1h-.16a6.13,6.13,0,0,1-6.13-6.12h0Z"/><path class="cls-2" d="M41.3,42a6.14,6.14,0,0,0-6.13,6.14v6.76a1,1,0,0,0,1,1h2.05a1,1,0,0,0,1-1V48.11a2,2,0,0,1,4.09,0h0v6.76a1,1,0,0,0,1,1h2a1,1,0,0,0,1-1V48.11A6.13,6.13,0,0,0,41.3,42Z"/><path class="cls-2" d="M64.12,37.38h-2a1,1,0,0,0-1,1v4A6,6,0,0,0,59,42a6.13,6.13,0,0,0-6.13,6.13v1.62A6.13,6.13,0,0,0,59,55.89,4.9,4.9,0,0,0,61,55.45c.26-.11.47.44,1.16.44h1.61a1.31,1.31,0,0,0,1.43-1.39V38.41A1,1,0,0,0,64.12,37.38ZM61.06,49.76a2,2,0,0,1-4.09,0h0V48.14a2,2,0,0,1,4.09,0h0Z"/><path class="cls-2" d="M94.63,42h-2a1.43,1.43,0,0,0-1.29,1l-2,7.32-2-7.32A1.42,1.42,0,0,0,86,42h-2a.77.77,0,0,0-.76,1l3.47,11.84a1.41,1.41,0,0,0,1.29,1h2.73a1.43,1.43,0,0,0,1.29-1L95.39,43A.76.76,0,0,0,94.63,42Z"/><rect class="cls-2" x="72.45" y="42.48" width="4.09" height="13.4" rx="1.02" ry="1.02"/><path class="cls-2" d="M74.5,41.4a2,2,0,1,0-2-2A2,2,0,0,0,74.5,41.4Z"/><rect class="cls-2" x="24.63" y="37.3" width="4.09" height="18.59" rx="1.02" ry="1.02"/></g></g></svg>